G04 #@! TF.GenerationSoftware,KiCad,Pcbnew,(5.0.0-rc2-206-gf10aa6c85)*
G04 #@! TF.CreationDate,2018-07-11T01:20:15+02:00*
G04 #@! TF.ProjectId,Sp_ka,5370F66B612E6B696361645F70636200,rev?*
G04 #@! TF.SameCoordinates,Original*
G04 #@! TF.FileFunction,Legend,Bot*
G04 #@! TF.FilePolarity,Positive*
%FSLAX46Y46*%
G04 Gerber Fmt 4.6, Leading zero omitted, Abs format (unit mm)*
G04 Created by KiCad (PCBNEW (5.0.0-rc2-206-gf10aa6c85)) date Wed Jul 11 01:20:15 2018*
%MOMM*%
%LPD*%
G01*
G04 APERTURE LIST*
%ADD10C,0.100000*%
%ADD11C,0.120000*%
%ADD12C,0.150000*%
G04 APERTURE END LIST*
D10*
X141025619Y-114077428D02*
X141073238Y-114172666D01*
X141120857Y-114220285D01*
X141216095Y-114267904D01*
X141501809Y-114267904D01*
X141597047Y-114220285D01*
X141644666Y-114172666D01*
X141692285Y-114077428D01*
X141692285Y-113934571D01*
X141644666Y-113839333D01*
X141597047Y-113791714D01*
X141501809Y-113744095D01*
X141216095Y-113744095D01*
X141120857Y-113791714D01*
X141073238Y-113839333D01*
X141025619Y-113934571D01*
X141025619Y-114077428D01*
X141025619Y-113315523D02*
X142025619Y-113315523D01*
X141025619Y-112886952D02*
X141549428Y-112886952D01*
X141644666Y-112934571D01*
X141692285Y-113029809D01*
X141692285Y-113172666D01*
X141644666Y-113267904D01*
X141597047Y-113315523D01*
X141025619Y-111982190D02*
X141549428Y-111982190D01*
X141644666Y-112029809D01*
X141692285Y-112125047D01*
X141692285Y-112315523D01*
X141644666Y-112410761D01*
X141073238Y-111982190D02*
X141025619Y-112077428D01*
X141025619Y-112315523D01*
X141073238Y-112410761D01*
X141168476Y-112458380D01*
X141263714Y-112458380D01*
X141358952Y-112410761D01*
X141406571Y-112315523D01*
X141406571Y-112077428D01*
X141454190Y-111982190D01*
X141025619Y-111506000D02*
X141692285Y-111506000D01*
X142025619Y-111506000D02*
X141978000Y-111553619D01*
X141930380Y-111506000D01*
X141978000Y-111458380D01*
X142025619Y-111506000D01*
X141930380Y-111506000D01*
X141025619Y-110125047D02*
X141073238Y-110220285D01*
X141120857Y-110267904D01*
X141216095Y-110315523D01*
X141501809Y-110315523D01*
X141597047Y-110267904D01*
X141644666Y-110220285D01*
X141692285Y-110125047D01*
X141692285Y-109982190D01*
X141644666Y-109886952D01*
X141597047Y-109839333D01*
X141501809Y-109791714D01*
X141216095Y-109791714D01*
X141120857Y-109839333D01*
X141073238Y-109886952D01*
X141025619Y-109982190D01*
X141025619Y-110125047D01*
X142073238Y-108648857D02*
X140787523Y-109506000D01*
G04 #@! TO.C,U1*
X147575517Y-99045068D02*
X146958156Y-99045068D01*
X147575517Y-101038262D02*
X147575517Y-99045068D01*
X146922878Y-101038262D02*
X147575517Y-101038262D01*
X146940517Y-97034235D02*
X146887600Y-103119651D01*
X145370656Y-97034235D02*
X146940517Y-97034235D01*
X144841489Y-97528124D02*
X145370656Y-97034235D01*
X143553850Y-97528124D02*
X144841489Y-97528124D01*
X143553850Y-102590485D02*
X143553850Y-97528124D01*
X144806211Y-102590485D02*
X143553850Y-102590485D01*
X145335378Y-103119651D02*
X144806211Y-102590485D01*
X146887600Y-103119651D02*
X145335378Y-103119651D01*
X132964350Y-96656812D02*
X132964350Y-102470549D01*
X140103931Y-96656812D02*
X132964350Y-96656812D01*
X140103931Y-102470549D02*
X140103931Y-96656812D01*
X132964350Y-102470549D02*
X140103931Y-102470549D01*
X146976480Y-103097819D02*
X146946686Y-96289476D01*
X148920026Y-104058715D02*
X146976480Y-103097819D01*
X148895078Y-126613807D02*
X148920026Y-104058715D01*
X148779482Y-127506575D02*
X148895078Y-126613807D01*
X148551122Y-128261613D02*
X148779482Y-127506575D01*
X148223595Y-128893460D02*
X148551122Y-128261613D01*
X147810503Y-129416658D02*
X148223595Y-128893460D01*
X147325445Y-129845743D02*
X147810503Y-129416658D01*
X146782018Y-130195258D02*
X147325445Y-129845743D01*
X146193824Y-130479741D02*
X146782018Y-130195258D01*
X145574460Y-130713734D02*
X146193824Y-130479741D01*
X126536547Y-130684976D02*
X145574460Y-130713734D01*
X125938750Y-130499310D02*
X126536547Y-130684976D01*
X125394560Y-130252377D02*
X125938750Y-130499310D01*
X124903488Y-129944741D02*
X125394560Y-130252377D01*
X124465047Y-129576952D02*
X124903488Y-129944741D01*
X124078747Y-129149577D02*
X124465047Y-129576952D01*
X123744099Y-128663167D02*
X124078747Y-129149577D01*
X123460616Y-128118286D02*
X123744099Y-128663167D01*
X123227805Y-127515493D02*
X123460616Y-128118286D01*
X123213807Y-96345342D02*
X123227805Y-127515493D01*
X132294603Y-96319264D02*
X123213807Y-96345342D01*
X132292627Y-97521517D02*
X132294603Y-96319264D01*
X141123849Y-97528205D02*
X132292627Y-97521517D01*
X141150180Y-96244772D02*
X141123849Y-97528205D01*
X146961472Y-96244772D02*
X141150180Y-96244772D01*
D11*
G04 #@! TO.C,R6*
X149688000Y-105418000D02*
X149688000Y-106418000D01*
X151048000Y-106418000D02*
X151048000Y-105418000D01*
G04 #@! TO.C,U1*
D12*
X136905904Y-114260380D02*
X136905904Y-115069904D01*
X136858285Y-115165142D01*
X136810666Y-115212761D01*
X136715428Y-115260380D01*
X136524952Y-115260380D01*
X136429714Y-115212761D01*
X136382095Y-115165142D01*
X136334476Y-115069904D01*
X136334476Y-114260380D01*
X135334476Y-115260380D02*
X135905904Y-115260380D01*
X135620190Y-115260380D02*
X135620190Y-114260380D01*
X135715428Y-114403238D01*
X135810666Y-114498476D01*
X135905904Y-114546095D01*
G04 #@! TO.C,R6*
X152270380Y-105751333D02*
X151794190Y-105418000D01*
X152270380Y-105179904D02*
X151270380Y-105179904D01*
X151270380Y-105560857D01*
X151318000Y-105656095D01*
X151365619Y-105703714D01*
X151460857Y-105751333D01*
X151603714Y-105751333D01*
X151698952Y-105703714D01*
X151746571Y-105656095D01*
X151794190Y-105560857D01*
X151794190Y-105179904D01*
X151270380Y-106608476D02*
X151270380Y-106418000D01*
X151318000Y-106322761D01*
X151365619Y-106275142D01*
X151508476Y-106179904D01*
X151698952Y-106132285D01*
X152079904Y-106132285D01*
X152175142Y-106179904D01*
X152222761Y-106227523D01*
X152270380Y-106322761D01*
X152270380Y-106513238D01*
X152222761Y-106608476D01*
X152175142Y-106656095D01*
X152079904Y-106703714D01*
X151841809Y-106703714D01*
X151746571Y-106656095D01*
X151698952Y-106608476D01*
X151651333Y-106513238D01*
X151651333Y-106322761D01*
X151698952Y-106227523D01*
X151746571Y-106179904D01*
X151841809Y-106132285D01*
G04 #@! TD*
M02*
