G04 #@! TF.GenerationSoftware,KiCad,Pcbnew,(5.0.0-rc2-206-gf10aa6c85)*
G04 #@! TF.CreationDate,2018-07-11T01:20:15+02:00*
G04 #@! TF.ProjectId,Sp_ka,5370F66B612E6B696361645F70636200,rev?*
G04 #@! TF.SameCoordinates,Original*
G04 #@! TF.FileFunction,Soldermask,Top*
G04 #@! TF.FilePolarity,Negative*
%FSLAX46Y46*%
G04 Gerber Fmt 4.6, Leading zero omitted, Abs format (unit mm)*
G04 Created by KiCad (PCBNEW (5.0.0-rc2-206-gf10aa6c85)) date Wed Jul 11 01:20:15 2018*
%MOMM*%
%LPD*%
G01*
G04 APERTURE LIST*
%ADD10C,2.200000*%
%ADD11R,3.900000X3.900000*%
%ADD12C,2.400000*%
%ADD13R,2.400000X2.400000*%
%ADD14R,1.150000X1.600000*%
%ADD15R,1.400000X2.000000*%
%ADD16R,1.600000X1.300000*%
%ADD17R,0.950000X2.150000*%
%ADD18R,1.300000X1.600000*%
%ADD19R,2.100000X2.100000*%
%ADD20O,2.100000X2.100000*%
G04 APERTURE END LIST*
D10*
G04 #@! TO.C,U1*
X147574000Y-122682000D03*
X147574000Y-120142000D03*
X147574000Y-117602000D03*
X147574000Y-115062000D03*
X147574000Y-112522000D03*
X147574000Y-109982000D03*
X147574000Y-107442000D03*
X147574000Y-104902000D03*
X124714000Y-104902000D03*
X124714000Y-107442000D03*
X124714000Y-109982000D03*
X124714000Y-112522000D03*
X124714000Y-115062000D03*
X124714000Y-117602000D03*
X124714000Y-120142000D03*
X124714000Y-122682000D03*
G04 #@! TD*
D11*
G04 #@! TO.C,J1*
X140716000Y-133175000D03*
X136016000Y-136175000D03*
X136016000Y-130175000D03*
G04 #@! TD*
D12*
G04 #@! TO.C,C1*
X137615000Y-125730000D03*
D13*
X134115000Y-125730000D03*
G04 #@! TD*
D14*
G04 #@! TO.C,C2*
X132842000Y-107310000D03*
X132842000Y-105410000D03*
G04 #@! TD*
D15*
G04 #@! TO.C,D1*
X130465102Y-119116798D03*
X127265102Y-119116798D03*
X130465102Y-124116798D03*
X127265102Y-124116798D03*
G04 #@! TD*
G04 #@! TO.C,D2*
X130465102Y-110226798D03*
X127265102Y-110226798D03*
X130465102Y-115226798D03*
X127265102Y-115226798D03*
G04 #@! TD*
G04 #@! TO.C,D3*
X130465102Y-101336798D03*
X127265102Y-101336798D03*
X130465102Y-106336798D03*
X127265102Y-106336798D03*
G04 #@! TD*
G04 #@! TO.C,D4*
X141743102Y-106336798D03*
X144943102Y-106336798D03*
X141743102Y-101336798D03*
X144943102Y-101336798D03*
G04 #@! TD*
G04 #@! TO.C,D5*
X141743102Y-115226798D03*
X144943102Y-115226798D03*
X141743102Y-110226798D03*
X144943102Y-110226798D03*
G04 #@! TD*
G04 #@! TO.C,D6*
X141743102Y-124116798D03*
X144943102Y-124116798D03*
X141743102Y-119116798D03*
X144943102Y-119116798D03*
G04 #@! TD*
D16*
G04 #@! TO.C,R1*
X135339000Y-101600000D03*
X133139000Y-101600000D03*
G04 #@! TD*
G04 #@! TO.C,R2*
X137244000Y-104140000D03*
X135044000Y-104140000D03*
G04 #@! TD*
G04 #@! TO.C,R3*
X139149000Y-101600000D03*
X136949000Y-101600000D03*
G04 #@! TD*
G04 #@! TO.C,R4*
X127594000Y-126238000D03*
X129794000Y-126238000D03*
G04 #@! TD*
D17*
G04 #@! TO.C,U2*
X134239000Y-107425000D03*
X135509000Y-107425000D03*
X136779000Y-107425000D03*
X138049000Y-107425000D03*
X138049000Y-114825000D03*
X136779000Y-114825000D03*
X135509000Y-114825000D03*
X134239000Y-114825000D03*
G04 #@! TD*
D14*
G04 #@! TO.C,C3*
X151892000Y-104968000D03*
X151892000Y-106868000D03*
G04 #@! TD*
D18*
G04 #@! TO.C,R5*
X150368000Y-104818000D03*
X150368000Y-107018000D03*
G04 #@! TD*
D19*
G04 #@! TO.C,SW1*
X151384000Y-115062000D03*
D20*
X151384000Y-112522000D03*
G04 #@! TD*
D19*
G04 #@! TO.C,J2*
X120650000Y-115062000D03*
D20*
X120650000Y-112522000D03*
X120650000Y-109982000D03*
X120650000Y-107442000D03*
G04 #@! TD*
M02*
