G04 #@! TF.GenerationSoftware,KiCad,Pcbnew,(5.0.0-rc2-206-gf10aa6c85)*
G04 #@! TF.CreationDate,2018-07-11T01:20:15+02:00*
G04 #@! TF.ProjectId,Sp_ka,5370F66B612E6B696361645F70636200,rev?*
G04 #@! TF.SameCoordinates,Original*
G04 #@! TF.FileFunction,Legend,Top*
G04 #@! TF.FilePolarity,Positive*
%FSLAX46Y46*%
G04 Gerber Fmt 4.6, Leading zero omitted, Abs format (unit mm)*
G04 Created by KiCad (PCBNEW (5.0.0-rc2-206-gf10aa6c85)) date Wed Jul 11 01:20:15 2018*
%MOMM*%
%LPD*%
G01*
G04 APERTURE LIST*
%ADD10C,0.300000*%
%ADD11C,0.100000*%
%ADD12C,0.120000*%
%ADD13C,0.150000*%
G04 APERTURE END LIST*
D10*
X133429714Y-94420571D02*
X134572571Y-94849142D01*
X133429714Y-95277714D01*
X135072571Y-94063428D02*
X135358285Y-93849142D01*
X135644000Y-94063428D01*
X136144000Y-95277714D02*
X136215428Y-95349142D01*
X136144000Y-95420571D01*
X136072571Y-95349142D01*
X136144000Y-95277714D01*
X136144000Y-95420571D01*
X136644000Y-94063428D02*
X136929714Y-93849142D01*
X137215428Y-94063428D01*
X138858285Y-94420571D02*
X137715428Y-94849142D01*
X138858285Y-95277714D01*
D11*
X141319428Y-94781714D02*
X141557523Y-95448380D01*
X141795619Y-94781714D01*
X142367047Y-94448380D02*
X142462285Y-94448380D01*
X142557523Y-94496000D01*
X142605142Y-94543619D01*
X142652761Y-94638857D01*
X142700380Y-94829333D01*
X142700380Y-95067428D01*
X142652761Y-95257904D01*
X142605142Y-95353142D01*
X142557523Y-95400761D01*
X142462285Y-95448380D01*
X142367047Y-95448380D01*
X142271809Y-95400761D01*
X142224190Y-95353142D01*
X142176571Y-95257904D01*
X142128952Y-95067428D01*
X142128952Y-94829333D01*
X142176571Y-94638857D01*
X142224190Y-94543619D01*
X142271809Y-94496000D01*
X142367047Y-94448380D01*
X143128952Y-95353142D02*
X143176571Y-95400761D01*
X143128952Y-95448380D01*
X143081333Y-95400761D01*
X143128952Y-95353142D01*
X143128952Y-95448380D01*
X144128952Y-95448380D02*
X143557523Y-95448380D01*
X143843238Y-95448380D02*
X143843238Y-94448380D01*
X143748000Y-94591238D01*
X143652761Y-94686476D01*
X143557523Y-94734095D01*
X123913809Y-97575714D02*
X123913809Y-98385238D01*
X123866190Y-98480476D01*
X123818571Y-98528095D01*
X123723333Y-98575714D01*
X123580476Y-98575714D01*
X123485238Y-98528095D01*
X123913809Y-98194761D02*
X123818571Y-98242380D01*
X123628095Y-98242380D01*
X123532857Y-98194761D01*
X123485238Y-98147142D01*
X123437619Y-98051904D01*
X123437619Y-97766190D01*
X123485238Y-97670952D01*
X123532857Y-97623333D01*
X123628095Y-97575714D01*
X123818571Y-97575714D01*
X123913809Y-97623333D01*
X124390000Y-98242380D02*
X124390000Y-97575714D01*
X124390000Y-97242380D02*
X124342380Y-97290000D01*
X124390000Y-97337619D01*
X124437619Y-97290000D01*
X124390000Y-97242380D01*
X124390000Y-97337619D01*
X124723333Y-97575714D02*
X125104285Y-97575714D01*
X124866190Y-97242380D02*
X124866190Y-98099523D01*
X124913809Y-98194761D01*
X125009047Y-98242380D01*
X125104285Y-98242380D01*
X125437619Y-98242380D02*
X125437619Y-97242380D01*
X125866190Y-98242380D02*
X125866190Y-97718571D01*
X125818571Y-97623333D01*
X125723333Y-97575714D01*
X125580476Y-97575714D01*
X125485238Y-97623333D01*
X125437619Y-97670952D01*
X126770952Y-97575714D02*
X126770952Y-98242380D01*
X126342380Y-97575714D02*
X126342380Y-98099523D01*
X126390000Y-98194761D01*
X126485238Y-98242380D01*
X126628095Y-98242380D01*
X126723333Y-98194761D01*
X126770952Y-98147142D01*
X127247142Y-98242380D02*
X127247142Y-97242380D01*
X127247142Y-97623333D02*
X127342380Y-97575714D01*
X127532857Y-97575714D01*
X127628095Y-97623333D01*
X127675714Y-97670952D01*
X127723333Y-97766190D01*
X127723333Y-98051904D01*
X127675714Y-98147142D01*
X127628095Y-98194761D01*
X127532857Y-98242380D01*
X127342380Y-98242380D01*
X127247142Y-98194761D01*
X128151904Y-98147142D02*
X128199523Y-98194761D01*
X128151904Y-98242380D01*
X128104285Y-98194761D01*
X128151904Y-98147142D01*
X128151904Y-98242380D01*
X129056666Y-98194761D02*
X128961428Y-98242380D01*
X128770952Y-98242380D01*
X128675714Y-98194761D01*
X128628095Y-98147142D01*
X128580476Y-98051904D01*
X128580476Y-97766190D01*
X128628095Y-97670952D01*
X128675714Y-97623333D01*
X128770952Y-97575714D01*
X128961428Y-97575714D01*
X129056666Y-97623333D01*
X129628095Y-98242380D02*
X129532857Y-98194761D01*
X129485238Y-98147142D01*
X129437619Y-98051904D01*
X129437619Y-97766190D01*
X129485238Y-97670952D01*
X129532857Y-97623333D01*
X129628095Y-97575714D01*
X129770952Y-97575714D01*
X129866190Y-97623333D01*
X129913809Y-97670952D01*
X129961428Y-97766190D01*
X129961428Y-98051904D01*
X129913809Y-98147142D01*
X129866190Y-98194761D01*
X129770952Y-98242380D01*
X129628095Y-98242380D01*
X130390000Y-98242380D02*
X130390000Y-97575714D01*
X130390000Y-97670952D02*
X130437619Y-97623333D01*
X130532857Y-97575714D01*
X130675714Y-97575714D01*
X130770952Y-97623333D01*
X130818571Y-97718571D01*
X130818571Y-98242380D01*
X130818571Y-97718571D02*
X130866190Y-97623333D01*
X130961428Y-97575714D01*
X131104285Y-97575714D01*
X131199523Y-97623333D01*
X131247142Y-97718571D01*
X131247142Y-98242380D01*
X132437619Y-97194761D02*
X131580476Y-98480476D01*
X132770952Y-97575714D02*
X132770952Y-98242380D01*
X132770952Y-97670952D02*
X132818571Y-97623333D01*
X132913809Y-97575714D01*
X133056666Y-97575714D01*
X133151904Y-97623333D01*
X133199523Y-97718571D01*
X133199523Y-98242380D01*
X134056666Y-98194761D02*
X133961428Y-98242380D01*
X133770952Y-98242380D01*
X133675714Y-98194761D01*
X133628095Y-98099523D01*
X133628095Y-97718571D01*
X133675714Y-97623333D01*
X133770952Y-97575714D01*
X133961428Y-97575714D01*
X134056666Y-97623333D01*
X134104285Y-97718571D01*
X134104285Y-97813809D01*
X133628095Y-97909047D01*
X134532857Y-98242380D02*
X134532857Y-97575714D01*
X134532857Y-97766190D02*
X134580476Y-97670952D01*
X134628095Y-97623333D01*
X134723333Y-97575714D01*
X134818571Y-97575714D01*
X135056666Y-97575714D02*
X135294761Y-98242380D01*
X135532857Y-97575714D01*
X136294761Y-98194761D02*
X136199523Y-98242380D01*
X136009047Y-98242380D01*
X135913809Y-98194761D01*
X135866190Y-98099523D01*
X135866190Y-97718571D01*
X135913809Y-97623333D01*
X136009047Y-97575714D01*
X136199523Y-97575714D01*
X136294761Y-97623333D01*
X136342380Y-97718571D01*
X136342380Y-97813809D01*
X135866190Y-97909047D01*
X136770952Y-97575714D02*
X136770952Y-98242380D01*
X136770952Y-97670952D02*
X136818571Y-97623333D01*
X136913809Y-97575714D01*
X137056666Y-97575714D01*
X137151904Y-97623333D01*
X137199523Y-97718571D01*
X137199523Y-98242380D01*
X138104285Y-97575714D02*
X138104285Y-98385238D01*
X138056666Y-98480476D01*
X138009047Y-98528095D01*
X137913809Y-98575714D01*
X137770952Y-98575714D01*
X137675714Y-98528095D01*
X138104285Y-98194761D02*
X138009047Y-98242380D01*
X137818571Y-98242380D01*
X137723333Y-98194761D01*
X137675714Y-98147142D01*
X137628095Y-98051904D01*
X137628095Y-97766190D01*
X137675714Y-97670952D01*
X137723333Y-97623333D01*
X137818571Y-97575714D01*
X138009047Y-97575714D01*
X138104285Y-97623333D01*
X138580476Y-98242380D02*
X138580476Y-97575714D01*
X138580476Y-97242380D02*
X138532857Y-97290000D01*
X138580476Y-97337619D01*
X138628095Y-97290000D01*
X138580476Y-97242380D01*
X138580476Y-97337619D01*
X138913809Y-97575714D02*
X139294761Y-97575714D01*
X139056666Y-98242380D02*
X139056666Y-97385238D01*
X139104285Y-97290000D01*
X139199523Y-97242380D01*
X139294761Y-97242380D01*
X139485238Y-97575714D02*
X139866190Y-97575714D01*
X139628095Y-97242380D02*
X139628095Y-98099523D01*
X139675714Y-98194761D01*
X139770952Y-98242380D01*
X139866190Y-98242380D01*
X140913809Y-97194761D02*
X140056666Y-98480476D01*
X141199523Y-98194761D02*
X141294761Y-98242380D01*
X141485238Y-98242380D01*
X141580476Y-98194761D01*
X141628095Y-98099523D01*
X141628095Y-98051904D01*
X141580476Y-97956666D01*
X141485238Y-97909047D01*
X141342380Y-97909047D01*
X141247142Y-97861428D01*
X141199523Y-97766190D01*
X141199523Y-97718571D01*
X141247142Y-97623333D01*
X141342380Y-97575714D01*
X141485238Y-97575714D01*
X141580476Y-97623333D01*
X142056666Y-97575714D02*
X142056666Y-98575714D01*
X142056666Y-97623333D02*
X142151904Y-97575714D01*
X142342380Y-97575714D01*
X142437619Y-97623333D01*
X142485238Y-97670952D01*
X142532857Y-97766190D01*
X142532857Y-98051904D01*
X142485238Y-98147142D01*
X142437619Y-98194761D01*
X142342380Y-98242380D01*
X142151904Y-98242380D01*
X142056666Y-98194761D01*
X143104285Y-98242380D02*
X143009047Y-98194761D01*
X142961428Y-98147142D01*
X142913809Y-98051904D01*
X142913809Y-97766190D01*
X142961428Y-97670952D01*
X143009047Y-97623333D01*
X143104285Y-97575714D01*
X143247142Y-97575714D01*
X143342380Y-97623333D01*
X143390000Y-97670952D01*
X143437619Y-97766190D01*
X143437619Y-98051904D01*
X143390000Y-98147142D01*
X143342380Y-98194761D01*
X143247142Y-98242380D01*
X143104285Y-98242380D01*
X144247142Y-98194761D02*
X144151904Y-98242380D01*
X143961428Y-98242380D01*
X143866190Y-98194761D01*
X143818571Y-98099523D01*
X143818571Y-97718571D01*
X143866190Y-97623333D01*
X143961428Y-97575714D01*
X144151904Y-97575714D01*
X144247142Y-97623333D01*
X144294761Y-97718571D01*
X144294761Y-97813809D01*
X143818571Y-97909047D01*
X144723333Y-98242380D02*
X144723333Y-97242380D01*
X144818571Y-97861428D02*
X145104285Y-98242380D01*
X145104285Y-97575714D02*
X144723333Y-97956666D01*
X145961428Y-98242380D02*
X145961428Y-97718571D01*
X145913809Y-97623333D01*
X145818571Y-97575714D01*
X145628095Y-97575714D01*
X145532857Y-97623333D01*
X145961428Y-98194761D02*
X145866190Y-98242380D01*
X145628095Y-98242380D01*
X145532857Y-98194761D01*
X145485238Y-98099523D01*
X145485238Y-98004285D01*
X145532857Y-97909047D01*
X145628095Y-97861428D01*
X145866190Y-97861428D01*
X145961428Y-97813809D01*
X146437619Y-97575714D02*
X146437619Y-98242380D01*
X146437619Y-97670952D02*
X146485238Y-97623333D01*
X146580476Y-97575714D01*
X146723333Y-97575714D01*
X146818571Y-97623333D01*
X146866190Y-97718571D01*
X146866190Y-98242380D01*
X147723333Y-98194761D02*
X147628095Y-98242380D01*
X147437619Y-98242380D01*
X147342380Y-98194761D01*
X147294761Y-98099523D01*
X147294761Y-97718571D01*
X147342380Y-97623333D01*
X147437619Y-97575714D01*
X147628095Y-97575714D01*
X147723333Y-97623333D01*
X147770952Y-97718571D01*
X147770952Y-97813809D01*
X147294761Y-97909047D01*
X148056666Y-97575714D02*
X148437619Y-97575714D01*
X148199523Y-97242380D02*
X148199523Y-98099523D01*
X148247142Y-98194761D01*
X148342380Y-98242380D01*
X148437619Y-98242380D01*
D12*
G04 #@! TO.C,J1*
X131416000Y-129275000D02*
X134016000Y-129275000D01*
X131416000Y-139775000D02*
X131416000Y-129275000D01*
X140616000Y-129275000D02*
X140616000Y-131175000D01*
X137916000Y-129275000D02*
X140616000Y-129275000D01*
X140616000Y-135175000D02*
X140616000Y-139775000D01*
G04 #@! TO.C,C1*
X132165000Y-124980000D02*
X132165000Y-126480000D01*
X131415000Y-125730000D02*
X132915000Y-125730000D01*
G04 #@! TO.C,C2*
X132242000Y-106710000D02*
X132242000Y-106010000D01*
X133442000Y-106010000D02*
X133442000Y-106710000D01*
G04 #@! TO.C,D1*
X126265102Y-125116798D02*
X127265102Y-125116798D01*
X126265102Y-118116798D02*
X126265102Y-125116798D01*
X131465102Y-118116798D02*
X131465102Y-125116798D01*
G04 #@! TO.C,D2*
X126265102Y-116226798D02*
X127265102Y-116226798D01*
X126265102Y-109226798D02*
X126265102Y-116226798D01*
X131465102Y-109226798D02*
X131465102Y-116226798D01*
G04 #@! TO.C,D3*
X126265102Y-107336798D02*
X127265102Y-107336798D01*
X126265102Y-100336798D02*
X126265102Y-107336798D01*
X131465102Y-100336798D02*
X131465102Y-107336798D01*
G04 #@! TO.C,D4*
X145943102Y-100336798D02*
X144943102Y-100336798D01*
X145943102Y-107336798D02*
X145943102Y-100336798D01*
X140743102Y-107336798D02*
X140743102Y-100336798D01*
G04 #@! TO.C,D5*
X145943102Y-109226798D02*
X144943102Y-109226798D01*
X145943102Y-116226798D02*
X145943102Y-109226798D01*
X140743102Y-116226798D02*
X140743102Y-109226798D01*
G04 #@! TO.C,D6*
X145943102Y-118116798D02*
X144943102Y-118116798D01*
X145943102Y-125116798D02*
X145943102Y-118116798D01*
X140743102Y-125116798D02*
X140743102Y-118116798D01*
G04 #@! TO.C,R1*
X133739000Y-100920000D02*
X134739000Y-100920000D01*
X134739000Y-102280000D02*
X133739000Y-102280000D01*
G04 #@! TO.C,R2*
X135644000Y-103460000D02*
X136644000Y-103460000D01*
X136644000Y-104820000D02*
X135644000Y-104820000D01*
G04 #@! TO.C,R3*
X137549000Y-100920000D02*
X138549000Y-100920000D01*
X138549000Y-102280000D02*
X137549000Y-102280000D01*
G04 #@! TO.C,R4*
X129194000Y-126918000D02*
X128194000Y-126918000D01*
X128194000Y-125558000D02*
X129194000Y-125558000D01*
D13*
G04 #@! TO.C,U2*
X133594000Y-113875000D02*
X133594000Y-115625000D01*
X139349000Y-113875000D02*
X139349000Y-108375000D01*
X132939000Y-113875000D02*
X132939000Y-108375000D01*
X139349000Y-113875000D02*
X138599000Y-113875000D01*
X139349000Y-108375000D02*
X138599000Y-108375000D01*
X132939000Y-108375000D02*
X133689000Y-108375000D01*
X132939000Y-113875000D02*
X133594000Y-113875000D01*
D12*
G04 #@! TO.C,C3*
X152492000Y-105568000D02*
X152492000Y-106268000D01*
X151292000Y-106268000D02*
X151292000Y-105568000D01*
G04 #@! TO.C,R5*
X149688000Y-106418000D02*
X149688000Y-105418000D01*
X151048000Y-105418000D02*
X151048000Y-106418000D01*
G04 #@! TO.C,SW1*
X152714000Y-111192000D02*
X150054000Y-111192000D01*
X152714000Y-113792000D02*
X152714000Y-111192000D01*
X150054000Y-113792000D02*
X150054000Y-111192000D01*
X152714000Y-113792000D02*
X150054000Y-113792000D01*
X152714000Y-115062000D02*
X152714000Y-116392000D01*
X152714000Y-116392000D02*
X151384000Y-116392000D01*
G04 #@! TO.C,J2*
X121980000Y-106112000D02*
X119320000Y-106112000D01*
X121980000Y-113792000D02*
X121980000Y-106112000D01*
X119320000Y-113792000D02*
X119320000Y-106112000D01*
X121980000Y-113792000D02*
X119320000Y-113792000D01*
X121980000Y-115062000D02*
X121980000Y-116392000D01*
X121980000Y-116392000D02*
X120650000Y-116392000D01*
G04 #@! TO.C,J1*
D13*
X138898380Y-138255333D02*
X139612666Y-138255333D01*
X139755523Y-138302952D01*
X139850761Y-138398190D01*
X139898380Y-138541047D01*
X139898380Y-138636285D01*
X139898380Y-137255333D02*
X139898380Y-137826761D01*
X139898380Y-137541047D02*
X138898380Y-137541047D01*
X139041238Y-137636285D01*
X139136476Y-137731523D01*
X139184095Y-137826761D01*
G04 #@! TO.C,C1*
X135723333Y-123547142D02*
X135675714Y-123594761D01*
X135532857Y-123642380D01*
X135437619Y-123642380D01*
X135294761Y-123594761D01*
X135199523Y-123499523D01*
X135151904Y-123404285D01*
X135104285Y-123213809D01*
X135104285Y-123070952D01*
X135151904Y-122880476D01*
X135199523Y-122785238D01*
X135294761Y-122690000D01*
X135437619Y-122642380D01*
X135532857Y-122642380D01*
X135675714Y-122690000D01*
X135723333Y-122737619D01*
X136675714Y-123642380D02*
X136104285Y-123642380D01*
X136390000Y-123642380D02*
X136390000Y-122642380D01*
X136294761Y-122785238D01*
X136199523Y-122880476D01*
X136104285Y-122928095D01*
G04 #@! TO.C,C2*
X133199142Y-103671666D02*
X133246761Y-103719285D01*
X133294380Y-103862142D01*
X133294380Y-103957380D01*
X133246761Y-104100238D01*
X133151523Y-104195476D01*
X133056285Y-104243095D01*
X132865809Y-104290714D01*
X132722952Y-104290714D01*
X132532476Y-104243095D01*
X132437238Y-104195476D01*
X132342000Y-104100238D01*
X132294380Y-103957380D01*
X132294380Y-103862142D01*
X132342000Y-103719285D01*
X132389619Y-103671666D01*
X132389619Y-103290714D02*
X132342000Y-103243095D01*
X132294380Y-103147857D01*
X132294380Y-102909761D01*
X132342000Y-102814523D01*
X132389619Y-102766904D01*
X132484857Y-102719285D01*
X132580095Y-102719285D01*
X132722952Y-102766904D01*
X133294380Y-103338333D01*
X133294380Y-102719285D01*
G04 #@! TO.C,D1*
X129439074Y-122354893D02*
X128439074Y-122354893D01*
X128439074Y-122116798D01*
X128486694Y-121973940D01*
X128581932Y-121878702D01*
X128677170Y-121831083D01*
X128867646Y-121783464D01*
X129010503Y-121783464D01*
X129200979Y-121831083D01*
X129296217Y-121878702D01*
X129391455Y-121973940D01*
X129439074Y-122116798D01*
X129439074Y-122354893D01*
X129439074Y-120831083D02*
X129439074Y-121402512D01*
X129439074Y-121116798D02*
X128439074Y-121116798D01*
X128581932Y-121212036D01*
X128677170Y-121307274D01*
X128724789Y-121402512D01*
G04 #@! TO.C,D2*
X129439074Y-113464893D02*
X128439074Y-113464893D01*
X128439074Y-113226798D01*
X128486694Y-113083940D01*
X128581932Y-112988702D01*
X128677170Y-112941083D01*
X128867646Y-112893464D01*
X129010503Y-112893464D01*
X129200979Y-112941083D01*
X129296217Y-112988702D01*
X129391455Y-113083940D01*
X129439074Y-113226798D01*
X129439074Y-113464893D01*
X128534313Y-112512512D02*
X128486694Y-112464893D01*
X128439074Y-112369655D01*
X128439074Y-112131559D01*
X128486694Y-112036321D01*
X128534313Y-111988702D01*
X128629551Y-111941083D01*
X128724789Y-111941083D01*
X128867646Y-111988702D01*
X129439074Y-112560131D01*
X129439074Y-111941083D01*
G04 #@! TO.C,D3*
X129439074Y-104574893D02*
X128439074Y-104574893D01*
X128439074Y-104336798D01*
X128486694Y-104193940D01*
X128581932Y-104098702D01*
X128677170Y-104051083D01*
X128867646Y-104003464D01*
X129010503Y-104003464D01*
X129200979Y-104051083D01*
X129296217Y-104098702D01*
X129391455Y-104193940D01*
X129439074Y-104336798D01*
X129439074Y-104574893D01*
X128439074Y-103670131D02*
X128439074Y-103051083D01*
X128820027Y-103384417D01*
X128820027Y-103241559D01*
X128867646Y-103146321D01*
X128915265Y-103098702D01*
X129010503Y-103051083D01*
X129248598Y-103051083D01*
X129343836Y-103098702D01*
X129391455Y-103146321D01*
X129439074Y-103241559D01*
X129439074Y-103527274D01*
X129391455Y-103622512D01*
X129343836Y-103670131D01*
G04 #@! TO.C,D4*
X143917074Y-104574893D02*
X142917074Y-104574893D01*
X142917074Y-104336798D01*
X142964694Y-104193940D01*
X143059932Y-104098702D01*
X143155170Y-104051083D01*
X143345646Y-104003464D01*
X143488503Y-104003464D01*
X143678979Y-104051083D01*
X143774217Y-104098702D01*
X143869455Y-104193940D01*
X143917074Y-104336798D01*
X143917074Y-104574893D01*
X143250408Y-103146321D02*
X143917074Y-103146321D01*
X142869455Y-103384417D02*
X143583741Y-103622512D01*
X143583741Y-103003464D01*
G04 #@! TO.C,D5*
X143917074Y-113464893D02*
X142917074Y-113464893D01*
X142917074Y-113226798D01*
X142964694Y-113083940D01*
X143059932Y-112988702D01*
X143155170Y-112941083D01*
X143345646Y-112893464D01*
X143488503Y-112893464D01*
X143678979Y-112941083D01*
X143774217Y-112988702D01*
X143869455Y-113083940D01*
X143917074Y-113226798D01*
X143917074Y-113464893D01*
X142917074Y-111988702D02*
X142917074Y-112464893D01*
X143393265Y-112512512D01*
X143345646Y-112464893D01*
X143298027Y-112369655D01*
X143298027Y-112131559D01*
X143345646Y-112036321D01*
X143393265Y-111988702D01*
X143488503Y-111941083D01*
X143726598Y-111941083D01*
X143821836Y-111988702D01*
X143869455Y-112036321D01*
X143917074Y-112131559D01*
X143917074Y-112369655D01*
X143869455Y-112464893D01*
X143821836Y-112512512D01*
G04 #@! TO.C,D6*
X143917074Y-122354893D02*
X142917074Y-122354893D01*
X142917074Y-122116798D01*
X142964694Y-121973940D01*
X143059932Y-121878702D01*
X143155170Y-121831083D01*
X143345646Y-121783464D01*
X143488503Y-121783464D01*
X143678979Y-121831083D01*
X143774217Y-121878702D01*
X143869455Y-121973940D01*
X143917074Y-122116798D01*
X143917074Y-122354893D01*
X142917074Y-120926321D02*
X142917074Y-121116798D01*
X142964694Y-121212036D01*
X143012313Y-121259655D01*
X143155170Y-121354893D01*
X143345646Y-121402512D01*
X143726598Y-121402512D01*
X143821836Y-121354893D01*
X143869455Y-121307274D01*
X143917074Y-121212036D01*
X143917074Y-121021559D01*
X143869455Y-120926321D01*
X143821836Y-120878702D01*
X143726598Y-120831083D01*
X143488503Y-120831083D01*
X143393265Y-120878702D01*
X143345646Y-120926321D01*
X143298027Y-121021559D01*
X143298027Y-121212036D01*
X143345646Y-121307274D01*
X143393265Y-121354893D01*
X143488503Y-121402512D01*
G04 #@! TO.C,R1*
X134072333Y-100602380D02*
X133739000Y-100126190D01*
X133500904Y-100602380D02*
X133500904Y-99602380D01*
X133881857Y-99602380D01*
X133977095Y-99650000D01*
X134024714Y-99697619D01*
X134072333Y-99792857D01*
X134072333Y-99935714D01*
X134024714Y-100030952D01*
X133977095Y-100078571D01*
X133881857Y-100126190D01*
X133500904Y-100126190D01*
X135024714Y-100602380D02*
X134453285Y-100602380D01*
X134739000Y-100602380D02*
X134739000Y-99602380D01*
X134643761Y-99745238D01*
X134548523Y-99840476D01*
X134453285Y-99888095D01*
G04 #@! TO.C,R2*
X139152333Y-104592380D02*
X138819000Y-104116190D01*
X138580904Y-104592380D02*
X138580904Y-103592380D01*
X138961857Y-103592380D01*
X139057095Y-103640000D01*
X139104714Y-103687619D01*
X139152333Y-103782857D01*
X139152333Y-103925714D01*
X139104714Y-104020952D01*
X139057095Y-104068571D01*
X138961857Y-104116190D01*
X138580904Y-104116190D01*
X139533285Y-103687619D02*
X139580904Y-103640000D01*
X139676142Y-103592380D01*
X139914238Y-103592380D01*
X140009476Y-103640000D01*
X140057095Y-103687619D01*
X140104714Y-103782857D01*
X140104714Y-103878095D01*
X140057095Y-104020952D01*
X139485666Y-104592380D01*
X140104714Y-104592380D01*
G04 #@! TO.C,R3*
X137882333Y-100602380D02*
X137549000Y-100126190D01*
X137310904Y-100602380D02*
X137310904Y-99602380D01*
X137691857Y-99602380D01*
X137787095Y-99650000D01*
X137834714Y-99697619D01*
X137882333Y-99792857D01*
X137882333Y-99935714D01*
X137834714Y-100030952D01*
X137787095Y-100078571D01*
X137691857Y-100126190D01*
X137310904Y-100126190D01*
X138215666Y-99602380D02*
X138834714Y-99602380D01*
X138501380Y-99983333D01*
X138644238Y-99983333D01*
X138739476Y-100030952D01*
X138787095Y-100078571D01*
X138834714Y-100173809D01*
X138834714Y-100411904D01*
X138787095Y-100507142D01*
X138739476Y-100554761D01*
X138644238Y-100602380D01*
X138358523Y-100602380D01*
X138263285Y-100554761D01*
X138215666Y-100507142D01*
G04 #@! TO.C,R4*
X128527333Y-128140380D02*
X128194000Y-127664190D01*
X127955904Y-128140380D02*
X127955904Y-127140380D01*
X128336857Y-127140380D01*
X128432095Y-127188000D01*
X128479714Y-127235619D01*
X128527333Y-127330857D01*
X128527333Y-127473714D01*
X128479714Y-127568952D01*
X128432095Y-127616571D01*
X128336857Y-127664190D01*
X127955904Y-127664190D01*
X129384476Y-127473714D02*
X129384476Y-128140380D01*
X129146380Y-127092761D02*
X128908285Y-127807047D01*
X129527333Y-127807047D01*
G04 #@! TO.C,U2*
X135596380Y-111886904D02*
X136405904Y-111886904D01*
X136501142Y-111839285D01*
X136548761Y-111791666D01*
X136596380Y-111696428D01*
X136596380Y-111505952D01*
X136548761Y-111410714D01*
X136501142Y-111363095D01*
X136405904Y-111315476D01*
X135596380Y-111315476D01*
X135691619Y-110886904D02*
X135644000Y-110839285D01*
X135596380Y-110744047D01*
X135596380Y-110505952D01*
X135644000Y-110410714D01*
X135691619Y-110363095D01*
X135786857Y-110315476D01*
X135882095Y-110315476D01*
X136024952Y-110363095D01*
X136596380Y-110934523D01*
X136596380Y-110315476D01*
G04 #@! TO.C,C3*
X152249142Y-103036666D02*
X152296761Y-103084285D01*
X152344380Y-103227142D01*
X152344380Y-103322380D01*
X152296761Y-103465238D01*
X152201523Y-103560476D01*
X152106285Y-103608095D01*
X151915809Y-103655714D01*
X151772952Y-103655714D01*
X151582476Y-103608095D01*
X151487238Y-103560476D01*
X151392000Y-103465238D01*
X151344380Y-103322380D01*
X151344380Y-103227142D01*
X151392000Y-103084285D01*
X151439619Y-103036666D01*
X151344380Y-102703333D02*
X151344380Y-102084285D01*
X151725333Y-102417619D01*
X151725333Y-102274761D01*
X151772952Y-102179523D01*
X151820571Y-102131904D01*
X151915809Y-102084285D01*
X152153904Y-102084285D01*
X152249142Y-102131904D01*
X152296761Y-102179523D01*
X152344380Y-102274761D01*
X152344380Y-102560476D01*
X152296761Y-102655714D01*
X152249142Y-102703333D01*
G04 #@! TO.C,R5*
X150820380Y-103036666D02*
X150344190Y-103370000D01*
X150820380Y-103608095D02*
X149820380Y-103608095D01*
X149820380Y-103227142D01*
X149868000Y-103131904D01*
X149915619Y-103084285D01*
X150010857Y-103036666D01*
X150153714Y-103036666D01*
X150248952Y-103084285D01*
X150296571Y-103131904D01*
X150344190Y-103227142D01*
X150344190Y-103608095D01*
X149820380Y-102131904D02*
X149820380Y-102608095D01*
X150296571Y-102655714D01*
X150248952Y-102608095D01*
X150201333Y-102512857D01*
X150201333Y-102274761D01*
X150248952Y-102179523D01*
X150296571Y-102131904D01*
X150391809Y-102084285D01*
X150629904Y-102084285D01*
X150725142Y-102131904D01*
X150772761Y-102179523D01*
X150820380Y-102274761D01*
X150820380Y-102512857D01*
X150772761Y-102608095D01*
X150725142Y-102655714D01*
G04 #@! TO.C,SW1*
X150050666Y-117796761D02*
X150193523Y-117844380D01*
X150431619Y-117844380D01*
X150526857Y-117796761D01*
X150574476Y-117749142D01*
X150622095Y-117653904D01*
X150622095Y-117558666D01*
X150574476Y-117463428D01*
X150526857Y-117415809D01*
X150431619Y-117368190D01*
X150241142Y-117320571D01*
X150145904Y-117272952D01*
X150098285Y-117225333D01*
X150050666Y-117130095D01*
X150050666Y-117034857D01*
X150098285Y-116939619D01*
X150145904Y-116892000D01*
X150241142Y-116844380D01*
X150479238Y-116844380D01*
X150622095Y-116892000D01*
X150955428Y-116844380D02*
X151193523Y-117844380D01*
X151384000Y-117130095D01*
X151574476Y-117844380D01*
X151812571Y-116844380D01*
X152717333Y-117844380D02*
X152145904Y-117844380D01*
X152431619Y-117844380D02*
X152431619Y-116844380D01*
X152336380Y-116987238D01*
X152241142Y-117082476D01*
X152145904Y-117130095D01*
G04 #@! TO.C,J2*
X120316666Y-116844380D02*
X120316666Y-117558666D01*
X120269047Y-117701523D01*
X120173809Y-117796761D01*
X120030952Y-117844380D01*
X119935714Y-117844380D01*
X120745238Y-116939619D02*
X120792857Y-116892000D01*
X120888095Y-116844380D01*
X121126190Y-116844380D01*
X121221428Y-116892000D01*
X121269047Y-116939619D01*
X121316666Y-117034857D01*
X121316666Y-117130095D01*
X121269047Y-117272952D01*
X120697619Y-117844380D01*
X121316666Y-117844380D01*
G04 #@! TD*
M02*
