M48
;DRILL file {KiCad (5.0.0-rc2-206-gf10aa6c85)} date Wed Jul 11 01:20:44 2018
;FORMAT={-:-/ absolute / inch / decimal}
FMAT,2
INCH,TZ
T1C0.0157
T2C0.0394
T3C0.0400
%
G90
G05
M72
T1
X4.69Y-4.7
X4.725Y-4.1
X4.88Y-3.95
X5.01Y-4.08
X5.05Y-4.42
X5.07Y-4.77
X5.11Y-5.1
X5.28Y-4.61
X5.32Y-3.95
X5.38Y-4.78
X5.39Y-4.43
X5.39Y-4.61
X5.4Y-3.95
X5.49Y-4.55
X5.5Y-4.14
X5.53Y-4.89
X5.625Y-5.
X5.69Y-4.44
X5.86Y-4.02
X5.975Y-4.725
T2
X5.2801Y-4.95
X5.4179Y-4.95
X4.75Y-4.23
X4.75Y-4.33
X4.75Y-4.43
X4.75Y-4.53
X5.96Y-4.43
X5.96Y-4.53
T3
X4.91Y-4.13
X4.91Y-4.23
X4.91Y-4.33
X4.91Y-4.43
X4.91Y-4.53
X4.91Y-4.63
X4.91Y-4.73
X4.91Y-4.83
X5.81Y-4.13
X5.81Y-4.23
X5.81Y-4.33
X5.81Y-4.43
X5.81Y-4.53
X5.81Y-4.63
X5.81Y-4.73
X5.81Y-4.83
T2
X5.3156Y-5.125G85X5.3943Y-5.125
G05
X5.3156Y-5.3612G85X5.3943Y-5.3612
G05
X5.54Y-5.2825G85X5.54Y-5.2037
G05
T0
M30
