G04 #@! TF.GenerationSoftware,KiCad,Pcbnew,(5.0.0-rc2-206-gf10aa6c85)*
G04 #@! TF.CreationDate,2018-07-11T01:20:15+02:00*
G04 #@! TF.ProjectId,Sp_ka,5370F66B612E6B696361645F70636200,rev?*
G04 #@! TF.SameCoordinates,Original*
G04 #@! TF.FileFunction,Copper,L1,Top,Signal*
G04 #@! TF.FilePolarity,Positive*
%FSLAX46Y46*%
G04 Gerber Fmt 4.6, Leading zero omitted, Abs format (unit mm)*
G04 Created by KiCad (PCBNEW (5.0.0-rc2-206-gf10aa6c85)) date Wed Jul 11 01:20:15 2018*
%MOMM*%
%LPD*%
G01*
G04 APERTURE LIST*
G04 #@! TA.AperFunction,ComponentPad*
%ADD10C,1.800000*%
G04 #@! TD*
G04 #@! TA.AperFunction,ComponentPad*
%ADD11R,3.500000X3.500000*%
G04 #@! TD*
G04 #@! TA.AperFunction,ComponentPad*
%ADD12C,2.000000*%
G04 #@! TD*
G04 #@! TA.AperFunction,ComponentPad*
%ADD13R,2.000000X2.000000*%
G04 #@! TD*
G04 #@! TA.AperFunction,SMDPad,CuDef*
%ADD14R,0.750000X1.200000*%
G04 #@! TD*
G04 #@! TA.AperFunction,SMDPad,CuDef*
%ADD15R,1.000000X1.600000*%
G04 #@! TD*
G04 #@! TA.AperFunction,SMDPad,CuDef*
%ADD16R,1.200000X0.900000*%
G04 #@! TD*
G04 #@! TA.AperFunction,SMDPad,CuDef*
%ADD17R,0.550000X1.750000*%
G04 #@! TD*
G04 #@! TA.AperFunction,SMDPad,CuDef*
%ADD18R,0.900000X1.200000*%
G04 #@! TD*
G04 #@! TA.AperFunction,ComponentPad*
%ADD19R,1.700000X1.700000*%
G04 #@! TD*
G04 #@! TA.AperFunction,ComponentPad*
%ADD20O,1.700000X1.700000*%
G04 #@! TD*
G04 #@! TA.AperFunction,ViaPad*
%ADD21C,0.800000*%
G04 #@! TD*
G04 #@! TA.AperFunction,Conductor*
%ADD22C,0.500000*%
G04 #@! TD*
G04 #@! TA.AperFunction,Conductor*
%ADD23C,0.250000*%
G04 #@! TD*
G04 #@! TA.AperFunction,Conductor*
%ADD24C,0.254000*%
G04 #@! TD*
G04 APERTURE END LIST*
D10*
G04 #@! TO.P,U1,9*
G04 #@! TO.N,Net-(U1-Pad9)*
X147574000Y-122682000D03*
G04 #@! TO.P,U1,10*
G04 #@! TO.N,Net-(U1-Pad10)*
X147574000Y-120142000D03*
G04 #@! TO.P,U1,11*
G04 #@! TO.N,DIR_B*
X147574000Y-117602000D03*
G04 #@! TO.P,U1,12*
G04 #@! TO.N,Net-(R6-Pad1)*
X147574000Y-115062000D03*
G04 #@! TO.P,U1,13*
G04 #@! TO.N,Net-(U1-Pad13)*
X147574000Y-112522000D03*
G04 #@! TO.P,U1,14*
G04 #@! TO.N,Net-(C3-Pad2)*
X147574000Y-109982000D03*
G04 #@! TO.P,U1,15*
G04 #@! TO.N,Net-(U1-Pad15)*
X147574000Y-107442000D03*
G04 #@! TO.P,U1,16*
G04 #@! TO.N,+3V3*
X147574000Y-104902000D03*
G04 #@! TO.P,U1,1*
G04 #@! TO.N,VCC*
X124714000Y-104902000D03*
G04 #@! TO.P,U1,2*
G04 #@! TO.N,GND*
X124714000Y-107442000D03*
G04 #@! TO.P,U1,3*
G04 #@! TO.N,TX_B*
X124714000Y-109982000D03*
G04 #@! TO.P,U1,4*
G04 #@! TO.N,Net-(U1-Pad4)*
X124714000Y-112522000D03*
G04 #@! TO.P,U1,5*
G04 #@! TO.N,Net-(U1-Pad5)*
X124714000Y-115062000D03*
G04 #@! TO.P,U1,6*
G04 #@! TO.N,Net-(U1-Pad6)*
X124714000Y-117602000D03*
G04 #@! TO.P,U1,7*
G04 #@! TO.N,RX*
X124714000Y-120142000D03*
G04 #@! TO.P,U1,8*
G04 #@! TO.N,TX_A*
X124714000Y-122682000D03*
G04 #@! TD*
D11*
G04 #@! TO.P,J1,3*
G04 #@! TO.N,GND*
X140716000Y-133175000D03*
G04 #@! TO.P,J1,2*
X136016000Y-136175000D03*
G04 #@! TO.P,J1,1*
G04 #@! TO.N,VCC*
X136016000Y-130175000D03*
G04 #@! TD*
D12*
G04 #@! TO.P,C1,2*
G04 #@! TO.N,GND*
X137615000Y-125730000D03*
D13*
G04 #@! TO.P,C1,1*
G04 #@! TO.N,VCC*
X134115000Y-125730000D03*
G04 #@! TD*
D14*
G04 #@! TO.P,C2,2*
G04 #@! TO.N,GND*
X132842000Y-107310000D03*
G04 #@! TO.P,C2,1*
G04 #@! TO.N,VCC*
X132842000Y-105410000D03*
G04 #@! TD*
D15*
G04 #@! TO.P,D1,1*
G04 #@! TO.N,VCC*
X130465102Y-119116798D03*
G04 #@! TO.P,D1,2*
G04 #@! TO.N,Net-(D1-Pad2)*
X127265102Y-119116798D03*
G04 #@! TO.P,D1,4*
G04 #@! TO.N,Net-(D1-Pad4)*
X130465102Y-124116798D03*
G04 #@! TO.P,D1,3*
G04 #@! TO.N,GND*
X127265102Y-124116798D03*
G04 #@! TD*
G04 #@! TO.P,D2,1*
G04 #@! TO.N,VCC*
X130465102Y-110226798D03*
G04 #@! TO.P,D2,2*
G04 #@! TO.N,Net-(D2-Pad2)*
X127265102Y-110226798D03*
G04 #@! TO.P,D2,4*
G04 #@! TO.N,Net-(D1-Pad2)*
X130465102Y-115226798D03*
G04 #@! TO.P,D2,3*
G04 #@! TO.N,GND*
X127265102Y-115226798D03*
G04 #@! TD*
G04 #@! TO.P,D3,1*
G04 #@! TO.N,VCC*
X130465102Y-101336798D03*
G04 #@! TO.P,D3,2*
G04 #@! TO.N,Net-(D3-Pad2)*
X127265102Y-101336798D03*
G04 #@! TO.P,D3,4*
G04 #@! TO.N,Net-(D2-Pad2)*
X130465102Y-106336798D03*
G04 #@! TO.P,D3,3*
G04 #@! TO.N,GND*
X127265102Y-106336798D03*
G04 #@! TD*
G04 #@! TO.P,D4,1*
G04 #@! TO.N,VCC*
X141743102Y-106336798D03*
G04 #@! TO.P,D4,2*
G04 #@! TO.N,Net-(D4-Pad2)*
X144943102Y-106336798D03*
G04 #@! TO.P,D4,4*
G04 #@! TO.N,Net-(D3-Pad2)*
X141743102Y-101336798D03*
G04 #@! TO.P,D4,3*
G04 #@! TO.N,GND*
X144943102Y-101336798D03*
G04 #@! TD*
G04 #@! TO.P,D5,1*
G04 #@! TO.N,VCC*
X141743102Y-115226798D03*
G04 #@! TO.P,D5,2*
G04 #@! TO.N,Net-(D5-Pad2)*
X144943102Y-115226798D03*
G04 #@! TO.P,D5,4*
G04 #@! TO.N,Net-(D4-Pad2)*
X141743102Y-110226798D03*
G04 #@! TO.P,D5,3*
G04 #@! TO.N,GND*
X144943102Y-110226798D03*
G04 #@! TD*
G04 #@! TO.P,D6,1*
G04 #@! TO.N,VCC*
X141743102Y-124116798D03*
G04 #@! TO.P,D6,2*
G04 #@! TO.N,Net-(D6-Pad2)*
X144943102Y-124116798D03*
G04 #@! TO.P,D6,4*
G04 #@! TO.N,Net-(D5-Pad2)*
X141743102Y-119116798D03*
G04 #@! TO.P,D6,3*
G04 #@! TO.N,GND*
X144943102Y-119116798D03*
G04 #@! TD*
D16*
G04 #@! TO.P,R1,2*
G04 #@! TO.N,Net-(J2-Pad2)*
X135339000Y-101600000D03*
G04 #@! TO.P,R1,1*
G04 #@! TO.N,VCC*
X133139000Y-101600000D03*
G04 #@! TD*
G04 #@! TO.P,R2,2*
G04 #@! TO.N,Net-(J2-Pad3)*
X137244000Y-104140000D03*
G04 #@! TO.P,R2,1*
G04 #@! TO.N,Net-(J2-Pad2)*
X135044000Y-104140000D03*
G04 #@! TD*
G04 #@! TO.P,R3,2*
G04 #@! TO.N,GND*
X139149000Y-101600000D03*
G04 #@! TO.P,R3,1*
G04 #@! TO.N,Net-(J2-Pad3)*
X136949000Y-101600000D03*
G04 #@! TD*
G04 #@! TO.P,R4,2*
G04 #@! TO.N,TX_A*
X127594000Y-126238000D03*
G04 #@! TO.P,R4,1*
G04 #@! TO.N,Net-(D1-Pad4)*
X129794000Y-126238000D03*
G04 #@! TD*
D17*
G04 #@! TO.P,U2,8*
G04 #@! TO.N,VCC*
X134239000Y-107425000D03*
G04 #@! TO.P,U2,7*
G04 #@! TO.N,Net-(J2-Pad2)*
X135509000Y-107425000D03*
G04 #@! TO.P,U2,6*
G04 #@! TO.N,Net-(J2-Pad3)*
X136779000Y-107425000D03*
G04 #@! TO.P,U2,5*
G04 #@! TO.N,GND*
X138049000Y-107425000D03*
G04 #@! TO.P,U2,4*
G04 #@! TO.N,TX_B*
X138049000Y-114825000D03*
G04 #@! TO.P,U2,3*
G04 #@! TO.N,DIR_B*
X136779000Y-114825000D03*
G04 #@! TO.P,U2,2*
X135509000Y-114825000D03*
G04 #@! TO.P,U2,1*
G04 #@! TO.N,RX*
X134239000Y-114825000D03*
G04 #@! TD*
D14*
G04 #@! TO.P,C3,1*
G04 #@! TO.N,GND*
X151892000Y-104968000D03*
G04 #@! TO.P,C3,2*
G04 #@! TO.N,Net-(C3-Pad2)*
X151892000Y-106868000D03*
G04 #@! TD*
D18*
G04 #@! TO.P,R5,1*
G04 #@! TO.N,+3V3*
X150368000Y-104818000D03*
G04 #@! TO.P,R5,2*
G04 #@! TO.N,Net-(C3-Pad2)*
X150368000Y-107018000D03*
G04 #@! TD*
D19*
G04 #@! TO.P,SW1,1*
G04 #@! TO.N,GND*
X151384000Y-115062000D03*
D20*
G04 #@! TO.P,SW1,2*
G04 #@! TO.N,Net-(C3-Pad2)*
X151384000Y-112522000D03*
G04 #@! TD*
D19*
G04 #@! TO.P,J2,1*
G04 #@! TO.N,VCC*
X120650000Y-115062000D03*
D20*
G04 #@! TO.P,J2,2*
G04 #@! TO.N,Net-(J2-Pad2)*
X120650000Y-112522000D03*
G04 #@! TO.P,J2,3*
G04 #@! TO.N,Net-(J2-Pad3)*
X120650000Y-109982000D03*
G04 #@! TO.P,J2,4*
G04 #@! TO.N,GND*
X120650000Y-107442000D03*
G04 #@! TD*
D21*
G04 #@! TO.N,GND*
X123952000Y-100330000D03*
X120015000Y-104140000D03*
X142875000Y-127000000D03*
X148844000Y-102108000D03*
X151765000Y-120015000D03*
X136652000Y-121412000D03*
X128778000Y-121158000D03*
X139700000Y-105156000D03*
X119126000Y-119380000D03*
X129794000Y-129540000D03*
X144526000Y-112776000D03*
X128270000Y-112268000D03*
X127254000Y-103632000D03*
X139446000Y-115570000D03*
G04 #@! TO.N,VCC*
X140462000Y-124206000D03*
G04 #@! TO.N,Net-(J2-Pad2)*
X135128000Y-100330000D03*
G04 #@! TO.N,Net-(J2-Pad3)*
X137160000Y-100330000D03*
G04 #@! TO.N,RX*
X134112000Y-117094000D03*
G04 #@! TO.N,TX_B*
X136906000Y-112522000D03*
G04 #@! TO.N,DIR_B*
X136906000Y-117094000D03*
G04 #@! TD*
D22*
G04 #@! TO.N,GND*
X125819202Y-106336798D02*
X124714000Y-107442000D01*
X127265102Y-106336798D02*
X125819202Y-106336798D01*
G04 #@! TO.N,VCC*
X130465102Y-102636798D02*
X130465102Y-101336798D01*
X131415103Y-103586799D02*
X130465102Y-102636798D01*
X133139000Y-102550000D02*
X132102201Y-103586799D01*
X133139000Y-101600000D02*
X133139000Y-102550000D01*
X134239000Y-106807000D02*
X132842000Y-105410000D01*
X134239000Y-107425000D02*
X134239000Y-106807000D01*
X141743102Y-124116798D02*
X140551202Y-124116798D01*
X140551202Y-124116798D02*
X140462000Y-124206000D01*
X130465102Y-108926798D02*
X131415103Y-107976797D01*
X130465102Y-110226798D02*
X130465102Y-108926798D01*
X131415103Y-107976797D02*
X131415103Y-107852897D01*
X131415103Y-107852897D02*
X131572000Y-107696000D01*
X132102201Y-103586799D02*
X131572000Y-103586799D01*
X131572000Y-103586799D02*
X131415103Y-103586799D01*
X131967000Y-105410000D02*
X131572000Y-105410000D01*
X132842000Y-105410000D02*
X131967000Y-105410000D01*
X131572000Y-107696000D02*
X131572000Y-105410000D01*
X125986792Y-104902000D02*
X131572000Y-104902000D01*
X124714000Y-104902000D02*
X125986792Y-104902000D01*
X131572000Y-105410000D02*
X131572000Y-104902000D01*
X131572000Y-104902000D02*
X131572000Y-103586799D01*
X134115000Y-128274000D02*
X136016000Y-130175000D01*
X134115000Y-125730000D02*
X134115000Y-128274000D01*
X141743102Y-113926798D02*
X141743102Y-115226798D01*
X140462000Y-112645696D02*
X141743102Y-113926798D01*
X140462000Y-108917900D02*
X140462000Y-112645696D01*
X141743102Y-106336798D02*
X141743102Y-107636798D01*
X141743102Y-107636798D02*
X140462000Y-108917900D01*
X140462000Y-122535696D02*
X141743102Y-123816798D01*
X140462000Y-116807900D02*
X140462000Y-122535696D01*
X141743102Y-115226798D02*
X141743102Y-115526798D01*
X141743102Y-123816798D02*
X141743102Y-124116798D01*
X141743102Y-115526798D02*
X140462000Y-116807900D01*
X131572000Y-112633696D02*
X131572000Y-116709900D01*
X130465102Y-110226798D02*
X130465102Y-111526798D01*
X130465102Y-117816798D02*
X130465102Y-119116798D01*
X131572000Y-116709900D02*
X130465102Y-117816798D01*
X130465102Y-111526798D02*
X131572000Y-112633696D01*
X130465102Y-119116798D02*
X131572000Y-120223696D01*
X131572000Y-123187000D02*
X134115000Y-125730000D01*
X131572000Y-120223696D02*
X131572000Y-123187000D01*
D23*
G04 #@! TO.N,Net-(J2-Pad2)*
X135509000Y-104605000D02*
X135044000Y-104140000D01*
X135509000Y-107425000D02*
X135509000Y-104605000D01*
X135044000Y-101895000D02*
X135339000Y-101600000D01*
X135044000Y-104140000D02*
X135044000Y-101895000D01*
X135339000Y-101600000D02*
X135339000Y-100541000D01*
X135339000Y-100541000D02*
X135128000Y-100330000D01*
G04 #@! TO.N,Net-(J2-Pad3)*
X136779000Y-104605000D02*
X137244000Y-104140000D01*
X136779000Y-107425000D02*
X136779000Y-104605000D01*
X137244000Y-101895000D02*
X136949000Y-101600000D01*
X137244000Y-104140000D02*
X137244000Y-101895000D01*
X136949000Y-101600000D02*
X136949000Y-100541000D01*
X136949000Y-100541000D02*
X137160000Y-100330000D01*
G04 #@! TO.N,TX_A*
X126997208Y-126238000D02*
X127594000Y-126238000D01*
X124714000Y-123954792D02*
X126997208Y-126238000D01*
X124714000Y-122682000D02*
X124714000Y-123954792D01*
G04 #@! TO.N,Net-(D1-Pad4)*
X129794000Y-124787900D02*
X130465102Y-124116798D01*
X129794000Y-126238000D02*
X129794000Y-124787900D01*
G04 #@! TO.N,RX*
X134239000Y-114825000D02*
X134239000Y-116967000D01*
X134239000Y-116967000D02*
X134112000Y-117094000D01*
G04 #@! TO.N,TX_B*
X138049000Y-113700000D02*
X137125000Y-112776000D01*
X138049000Y-114825000D02*
X138049000Y-113700000D01*
X137125000Y-112776000D02*
X137125000Y-112741000D01*
X137125000Y-112741000D02*
X136906000Y-112522000D01*
G04 #@! TO.N,DIR_B*
X135509000Y-114825000D02*
X136779000Y-114825000D01*
X136779000Y-114825000D02*
X136779000Y-116967000D01*
X136779000Y-116967000D02*
X136906000Y-117094000D01*
G04 #@! TO.N,Net-(D1-Pad2)*
X130465102Y-115616798D02*
X130465102Y-115226798D01*
X127265102Y-118816798D02*
X130465102Y-115616798D01*
X127265102Y-119116798D02*
X127265102Y-118816798D01*
G04 #@! TO.N,Net-(D2-Pad2)*
X130465102Y-106636798D02*
X130465102Y-106336798D01*
X127265102Y-109836798D02*
X130465102Y-106636798D01*
X127265102Y-110226798D02*
X127265102Y-109836798D01*
G04 #@! TO.N,Net-(D3-Pad2)*
X140993102Y-101336798D02*
X139224304Y-99568000D01*
X141743102Y-101336798D02*
X140993102Y-101336798D01*
X128015102Y-101336798D02*
X127265102Y-101336798D01*
X129783900Y-99568000D02*
X128015102Y-101336798D01*
X139224304Y-99568000D02*
X129783900Y-99568000D01*
G04 #@! TO.N,Net-(D4-Pad2)*
X144943102Y-106726798D02*
X144943102Y-106336798D01*
X141743102Y-109926798D02*
X144943102Y-106726798D01*
X141743102Y-110226798D02*
X141743102Y-109926798D01*
G04 #@! TO.N,Net-(D5-Pad2)*
X141743102Y-118726798D02*
X144943102Y-115526798D01*
X144943102Y-115526798D02*
X144943102Y-115226798D01*
X141743102Y-119116798D02*
X141743102Y-118726798D01*
G04 #@! TO.N,Net-(C3-Pad2)*
X151742000Y-107018000D02*
X151892000Y-106868000D01*
X150368000Y-107018000D02*
X151742000Y-107018000D01*
X151892000Y-112014000D02*
X151384000Y-112522000D01*
X151892000Y-106868000D02*
X151892000Y-109982000D01*
X151892000Y-109982000D02*
X151892000Y-112014000D01*
X148590000Y-109982000D02*
X147574000Y-109982000D01*
X150368000Y-107018000D02*
X150368000Y-108204000D01*
X150368000Y-108204000D02*
X148590000Y-109982000D01*
G04 #@! TO.N,+3V3*
X150284000Y-104902000D02*
X150368000Y-104818000D01*
X147574000Y-104902000D02*
X150284000Y-104902000D01*
G04 #@! TD*
D24*
G04 #@! TO.N,GND*
G36*
X128208044Y-100069055D02*
X128012867Y-99938641D01*
X127765102Y-99889358D01*
X126765102Y-99889358D01*
X126517337Y-99938641D01*
X126307293Y-100078989D01*
X126166945Y-100289033D01*
X126117662Y-100536798D01*
X126117662Y-102136798D01*
X126166945Y-102384563D01*
X126307293Y-102594607D01*
X126517337Y-102734955D01*
X126765102Y-102784238D01*
X127765102Y-102784238D01*
X128012867Y-102734955D01*
X128222911Y-102594607D01*
X128363259Y-102384563D01*
X128412542Y-102136798D01*
X128412542Y-101985281D01*
X128563031Y-101884727D01*
X128605433Y-101821268D01*
X129317662Y-101109039D01*
X129317662Y-102136798D01*
X129366945Y-102384563D01*
X129507293Y-102594607D01*
X129563665Y-102632274D01*
X129562765Y-102636798D01*
X129580102Y-102723959D01*
X129580102Y-102723962D01*
X129631450Y-102982107D01*
X129827053Y-103274847D01*
X129900949Y-103324223D01*
X130593725Y-104017000D01*
X125999817Y-104017000D01*
X125583507Y-103600690D01*
X125019330Y-103367000D01*
X124408670Y-103367000D01*
X123844493Y-103600690D01*
X123412690Y-104032493D01*
X123179000Y-104596670D01*
X123179000Y-105207330D01*
X123412690Y-105771507D01*
X123844493Y-106203310D01*
X123864115Y-106211438D01*
X123813446Y-106361841D01*
X124714000Y-107262395D01*
X125614554Y-106361841D01*
X125563885Y-106211438D01*
X125583507Y-106203310D01*
X125999817Y-105787000D01*
X126130102Y-105787000D01*
X126130102Y-106051048D01*
X126288852Y-106209798D01*
X127138102Y-106209798D01*
X127138102Y-106189798D01*
X127392102Y-106189798D01*
X127392102Y-106209798D01*
X128241352Y-106209798D01*
X128400102Y-106051048D01*
X128400102Y-105787000D01*
X129317662Y-105787000D01*
X129317662Y-106709435D01*
X127247741Y-108779358D01*
X126765102Y-108779358D01*
X126517337Y-108828641D01*
X126307293Y-108968989D01*
X126166945Y-109179033D01*
X126126693Y-109381395D01*
X126015310Y-109112493D01*
X125583507Y-108680690D01*
X125563885Y-108672562D01*
X125614554Y-108522159D01*
X124714000Y-107621605D01*
X123813446Y-108522159D01*
X123864115Y-108672562D01*
X123844493Y-108680690D01*
X123412690Y-109112493D01*
X123179000Y-109676670D01*
X123179000Y-110287330D01*
X123412690Y-110851507D01*
X123813183Y-111252000D01*
X123412690Y-111652493D01*
X123179000Y-112216670D01*
X123179000Y-112827330D01*
X123412690Y-113391507D01*
X123813183Y-113792000D01*
X123412690Y-114192493D01*
X123179000Y-114756670D01*
X123179000Y-115367330D01*
X123412690Y-115931507D01*
X123813183Y-116332000D01*
X123412690Y-116732493D01*
X123179000Y-117296670D01*
X123179000Y-117907330D01*
X123412690Y-118471507D01*
X123813183Y-118872000D01*
X123412690Y-119272493D01*
X123179000Y-119836670D01*
X123179000Y-120447330D01*
X123412690Y-121011507D01*
X123813183Y-121412000D01*
X123412690Y-121812493D01*
X123179000Y-122376670D01*
X123179000Y-122987330D01*
X123412690Y-123551507D01*
X123844493Y-123983310D01*
X123953790Y-124028582D01*
X123954001Y-124029644D01*
X123998097Y-124251329D01*
X124166072Y-124502721D01*
X124229528Y-124545121D01*
X126346560Y-126662154D01*
X126346560Y-126688000D01*
X126395843Y-126935765D01*
X126536191Y-127145809D01*
X126746235Y-127286157D01*
X126994000Y-127335440D01*
X128194000Y-127335440D01*
X128441765Y-127286157D01*
X128651809Y-127145809D01*
X128694000Y-127082666D01*
X128736191Y-127145809D01*
X128946235Y-127286157D01*
X129194000Y-127335440D01*
X130394000Y-127335440D01*
X130641765Y-127286157D01*
X130851809Y-127145809D01*
X130992157Y-126935765D01*
X131041440Y-126688000D01*
X131041440Y-125788000D01*
X130995720Y-125558148D01*
X131212867Y-125514955D01*
X131422911Y-125374607D01*
X131563259Y-125164563D01*
X131612542Y-124916798D01*
X131612542Y-124479120D01*
X132467560Y-125334139D01*
X132467560Y-126730000D01*
X132516843Y-126977765D01*
X132657191Y-127187809D01*
X132867235Y-127328157D01*
X133115000Y-127377440D01*
X133230001Y-127377440D01*
X133230001Y-128186835D01*
X133212663Y-128274000D01*
X133281348Y-128619309D01*
X133427576Y-128838154D01*
X133427578Y-128838156D01*
X133476952Y-128912049D01*
X133550845Y-128961423D01*
X133618560Y-129029138D01*
X133618560Y-131925000D01*
X133667843Y-132172765D01*
X133808191Y-132382809D01*
X134018235Y-132523157D01*
X134266000Y-132572440D01*
X137766000Y-132572440D01*
X138013765Y-132523157D01*
X138223809Y-132382809D01*
X138331000Y-132222388D01*
X138331000Y-132889250D01*
X138489750Y-133048000D01*
X140589000Y-133048000D01*
X140589000Y-130948750D01*
X140430250Y-130790000D01*
X138839690Y-130790000D01*
X138606301Y-130886673D01*
X138427673Y-131065302D01*
X138413440Y-131099663D01*
X138413440Y-128425000D01*
X138364157Y-128177235D01*
X138223809Y-127967191D01*
X138013765Y-127826843D01*
X137766000Y-127777560D01*
X135000000Y-127777560D01*
X135000000Y-127377440D01*
X135115000Y-127377440D01*
X135362765Y-127328157D01*
X135572809Y-127187809D01*
X135713157Y-126977765D01*
X135732099Y-126882532D01*
X136642073Y-126882532D01*
X136740736Y-127149387D01*
X137350461Y-127375908D01*
X138000460Y-127351856D01*
X138489264Y-127149387D01*
X138587927Y-126882532D01*
X137615000Y-125909605D01*
X136642073Y-126882532D01*
X135732099Y-126882532D01*
X135762440Y-126730000D01*
X135762440Y-125465461D01*
X135969092Y-125465461D01*
X135993144Y-126115460D01*
X136195613Y-126604264D01*
X136462468Y-126702927D01*
X137435395Y-125730000D01*
X137794605Y-125730000D01*
X138767532Y-126702927D01*
X139034387Y-126604264D01*
X139260908Y-125994539D01*
X139236856Y-125344540D01*
X139034387Y-124855736D01*
X138767532Y-124757073D01*
X137794605Y-125730000D01*
X137435395Y-125730000D01*
X136462468Y-124757073D01*
X136195613Y-124855736D01*
X135969092Y-125465461D01*
X135762440Y-125465461D01*
X135762440Y-124730000D01*
X135732100Y-124577468D01*
X136642073Y-124577468D01*
X137615000Y-125550395D01*
X138587927Y-124577468D01*
X138489264Y-124310613D01*
X137879539Y-124084092D01*
X137229540Y-124108144D01*
X136740736Y-124310613D01*
X136642073Y-124577468D01*
X135732100Y-124577468D01*
X135713157Y-124482235D01*
X135572809Y-124272191D01*
X135362765Y-124131843D01*
X135115000Y-124082560D01*
X133719139Y-124082560D01*
X133636705Y-124000126D01*
X139427000Y-124000126D01*
X139427000Y-124411874D01*
X139584569Y-124792280D01*
X139875720Y-125083431D01*
X140256126Y-125241000D01*
X140667874Y-125241000D01*
X140689918Y-125231869D01*
X140785293Y-125374607D01*
X140995337Y-125514955D01*
X141243102Y-125564238D01*
X142243102Y-125564238D01*
X142490867Y-125514955D01*
X142700911Y-125374607D01*
X142841259Y-125164563D01*
X142890542Y-124916798D01*
X142890542Y-123316798D01*
X143795662Y-123316798D01*
X143795662Y-124916798D01*
X143844945Y-125164563D01*
X143985293Y-125374607D01*
X144195337Y-125514955D01*
X144443102Y-125564238D01*
X145443102Y-125564238D01*
X145690867Y-125514955D01*
X145900911Y-125374607D01*
X146041259Y-125164563D01*
X146090542Y-124916798D01*
X146090542Y-123316798D01*
X146041259Y-123069033D01*
X145900911Y-122858989D01*
X145690867Y-122718641D01*
X145443102Y-122669358D01*
X144443102Y-122669358D01*
X144195337Y-122718641D01*
X143985293Y-122858989D01*
X143844945Y-123069033D01*
X143795662Y-123316798D01*
X142890542Y-123316798D01*
X142841259Y-123069033D01*
X142700911Y-122858989D01*
X142490867Y-122718641D01*
X142243102Y-122669358D01*
X141847241Y-122669358D01*
X141347000Y-122169118D01*
X141347000Y-120564238D01*
X142243102Y-120564238D01*
X142490867Y-120514955D01*
X142700911Y-120374607D01*
X142841259Y-120164563D01*
X142890542Y-119916798D01*
X142890542Y-119402548D01*
X143808102Y-119402548D01*
X143808102Y-120043107D01*
X143904775Y-120276496D01*
X144083403Y-120455125D01*
X144316792Y-120551798D01*
X144657352Y-120551798D01*
X144816102Y-120393048D01*
X144816102Y-119243798D01*
X143966852Y-119243798D01*
X143808102Y-119402548D01*
X142890542Y-119402548D01*
X142890542Y-118654159D01*
X143354212Y-118190489D01*
X143808102Y-118190489D01*
X143808102Y-118831048D01*
X143966852Y-118989798D01*
X144816102Y-118989798D01*
X144816102Y-117840548D01*
X145070102Y-117840548D01*
X145070102Y-118989798D01*
X145919352Y-118989798D01*
X146078102Y-118831048D01*
X146078102Y-118190489D01*
X145981429Y-117957100D01*
X145802801Y-117778471D01*
X145569412Y-117681798D01*
X145228852Y-117681798D01*
X145070102Y-117840548D01*
X144816102Y-117840548D01*
X144657352Y-117681798D01*
X144316792Y-117681798D01*
X144083403Y-117778471D01*
X143904775Y-117957100D01*
X143808102Y-118190489D01*
X143354212Y-118190489D01*
X144870465Y-116674238D01*
X145443102Y-116674238D01*
X145690867Y-116624955D01*
X145900911Y-116484607D01*
X146041259Y-116274563D01*
X146090542Y-116026798D01*
X146090542Y-115491763D01*
X146272690Y-115931507D01*
X146673183Y-116332000D01*
X146272690Y-116732493D01*
X146039000Y-117296670D01*
X146039000Y-117907330D01*
X146272690Y-118471507D01*
X146673183Y-118872000D01*
X146272690Y-119272493D01*
X146078102Y-119742270D01*
X146078102Y-119402548D01*
X145919352Y-119243798D01*
X145070102Y-119243798D01*
X145070102Y-120393048D01*
X145228852Y-120551798D01*
X145569412Y-120551798D01*
X145802801Y-120455125D01*
X145981429Y-120276496D01*
X146039000Y-120137507D01*
X146039000Y-120447330D01*
X146272690Y-121011507D01*
X146673183Y-121412000D01*
X146272690Y-121812493D01*
X146039000Y-122376670D01*
X146039000Y-122987330D01*
X146272690Y-123551507D01*
X146704493Y-123983310D01*
X147268670Y-124217000D01*
X147879330Y-124217000D01*
X148443507Y-123983310D01*
X148875310Y-123551507D01*
X149109000Y-122987330D01*
X149109000Y-122376670D01*
X148875310Y-121812493D01*
X148474817Y-121412000D01*
X148875310Y-121011507D01*
X149109000Y-120447330D01*
X149109000Y-119836670D01*
X148875310Y-119272493D01*
X148474817Y-118872000D01*
X148875310Y-118471507D01*
X149109000Y-117907330D01*
X149109000Y-117296670D01*
X148875310Y-116732493D01*
X148474817Y-116332000D01*
X148875310Y-115931507D01*
X149109000Y-115367330D01*
X149109000Y-115347750D01*
X149899000Y-115347750D01*
X149899000Y-116038310D01*
X149995673Y-116271699D01*
X150174302Y-116450327D01*
X150407691Y-116547000D01*
X151098250Y-116547000D01*
X151257000Y-116388250D01*
X151257000Y-115189000D01*
X151511000Y-115189000D01*
X151511000Y-116388250D01*
X151669750Y-116547000D01*
X152360309Y-116547000D01*
X152593698Y-116450327D01*
X152772327Y-116271699D01*
X152869000Y-116038310D01*
X152869000Y-115347750D01*
X152710250Y-115189000D01*
X151511000Y-115189000D01*
X151257000Y-115189000D01*
X150057750Y-115189000D01*
X149899000Y-115347750D01*
X149109000Y-115347750D01*
X149109000Y-114756670D01*
X148875310Y-114192493D01*
X148474817Y-113792000D01*
X148875310Y-113391507D01*
X149109000Y-112827330D01*
X149109000Y-112216670D01*
X148875310Y-111652493D01*
X148474817Y-111252000D01*
X148875310Y-110851507D01*
X148958986Y-110649495D01*
X149137929Y-110529929D01*
X149180331Y-110466470D01*
X150852473Y-108794329D01*
X150915929Y-108751929D01*
X151007525Y-108614846D01*
X151083904Y-108500538D01*
X151106637Y-108386250D01*
X151128000Y-108278852D01*
X151128000Y-108278848D01*
X151132000Y-108258736D01*
X151132001Y-109907144D01*
X151132000Y-109907149D01*
X151132001Y-111058034D01*
X150804582Y-111123161D01*
X150313375Y-111451375D01*
X149985161Y-111942582D01*
X149869908Y-112522000D01*
X149985161Y-113101418D01*
X150313375Y-113592625D01*
X150335033Y-113607096D01*
X150174302Y-113673673D01*
X149995673Y-113852301D01*
X149899000Y-114085690D01*
X149899000Y-114776250D01*
X150057750Y-114935000D01*
X151257000Y-114935000D01*
X151257000Y-114915000D01*
X151511000Y-114915000D01*
X151511000Y-114935000D01*
X152710250Y-114935000D01*
X152869000Y-114776250D01*
X152869000Y-114085690D01*
X152772327Y-113852301D01*
X152593698Y-113673673D01*
X152432967Y-113607096D01*
X152454625Y-113592625D01*
X152782839Y-113101418D01*
X152898092Y-112522000D01*
X152782839Y-111942582D01*
X152652000Y-111746768D01*
X152652000Y-107974459D01*
X152724809Y-107925809D01*
X152865157Y-107715765D01*
X152914440Y-107468000D01*
X152914440Y-106268000D01*
X152865157Y-106020235D01*
X152804127Y-105928898D01*
X152805327Y-105927698D01*
X152902000Y-105694309D01*
X152902000Y-105253750D01*
X152743250Y-105095000D01*
X152019000Y-105095000D01*
X152019000Y-105115000D01*
X151765000Y-105115000D01*
X151765000Y-105095000D01*
X151745000Y-105095000D01*
X151745000Y-104841000D01*
X151765000Y-104841000D01*
X151765000Y-103891750D01*
X152019000Y-103891750D01*
X152019000Y-104841000D01*
X152743250Y-104841000D01*
X152902000Y-104682250D01*
X152902000Y-104241691D01*
X152805327Y-104008302D01*
X152626699Y-103829673D01*
X152393310Y-103733000D01*
X152177750Y-103733000D01*
X152019000Y-103891750D01*
X151765000Y-103891750D01*
X151606250Y-103733000D01*
X151390690Y-103733000D01*
X151286482Y-103776164D01*
X151275809Y-103760191D01*
X151065765Y-103619843D01*
X150818000Y-103570560D01*
X149918000Y-103570560D01*
X149670235Y-103619843D01*
X149460191Y-103760191D01*
X149319843Y-103970235D01*
X149285677Y-104142000D01*
X148920669Y-104142000D01*
X148875310Y-104032493D01*
X148443507Y-103600690D01*
X147879330Y-103367000D01*
X147268670Y-103367000D01*
X146704493Y-103600690D01*
X146272690Y-104032493D01*
X146039000Y-104596670D01*
X146039000Y-105207330D01*
X146272690Y-105771507D01*
X146673183Y-106172000D01*
X146272690Y-106572493D01*
X146090542Y-107012237D01*
X146090542Y-105536798D01*
X146041259Y-105289033D01*
X145900911Y-105078989D01*
X145690867Y-104938641D01*
X145443102Y-104889358D01*
X144443102Y-104889358D01*
X144195337Y-104938641D01*
X143985293Y-105078989D01*
X143844945Y-105289033D01*
X143795662Y-105536798D01*
X143795662Y-106799435D01*
X142503786Y-108091313D01*
X142576754Y-107982108D01*
X142578580Y-107972929D01*
X142628102Y-107723963D01*
X142628102Y-107723959D01*
X142645439Y-107636798D01*
X142644539Y-107632274D01*
X142700911Y-107594607D01*
X142841259Y-107384563D01*
X142890542Y-107136798D01*
X142890542Y-105536798D01*
X142841259Y-105289033D01*
X142700911Y-105078989D01*
X142490867Y-104938641D01*
X142243102Y-104889358D01*
X141243102Y-104889358D01*
X140995337Y-104938641D01*
X140785293Y-105078989D01*
X140644945Y-105289033D01*
X140595662Y-105536798D01*
X140595662Y-107136798D01*
X140644945Y-107384563D01*
X140684524Y-107443797D01*
X139897847Y-108230475D01*
X139823951Y-108279851D01*
X139628348Y-108572591D01*
X139577000Y-108830736D01*
X139577000Y-108830739D01*
X139559663Y-108917900D01*
X139577000Y-109005061D01*
X139577001Y-112558531D01*
X139559663Y-112645696D01*
X139628348Y-112991005D01*
X139774576Y-113209850D01*
X139774578Y-113209852D01*
X139823952Y-113283745D01*
X139897845Y-113333119D01*
X140684524Y-114119799D01*
X140644945Y-114179033D01*
X140595662Y-114426798D01*
X140595662Y-115422659D01*
X139897847Y-116120475D01*
X139823951Y-116169851D01*
X139628348Y-116462591D01*
X139577000Y-116720736D01*
X139577000Y-116720739D01*
X139559663Y-116807900D01*
X139577000Y-116895061D01*
X139577001Y-122448531D01*
X139559663Y-122535696D01*
X139628348Y-122881005D01*
X139774576Y-123099850D01*
X139774578Y-123099852D01*
X139823952Y-123173745D01*
X139897845Y-123223119D01*
X139965929Y-123291203D01*
X139875720Y-123328569D01*
X139584569Y-123619720D01*
X139427000Y-124000126D01*
X133636705Y-124000126D01*
X132457000Y-122820422D01*
X132457000Y-120310855D01*
X132474337Y-120223695D01*
X132457000Y-120136535D01*
X132457000Y-120136531D01*
X132405652Y-119878386D01*
X132210049Y-119585647D01*
X132136156Y-119536273D01*
X131612542Y-119012660D01*
X131612542Y-118316798D01*
X131563259Y-118069033D01*
X131523680Y-118009799D01*
X132136156Y-117397323D01*
X132210049Y-117347949D01*
X132405652Y-117055210D01*
X132438886Y-116888126D01*
X133077000Y-116888126D01*
X133077000Y-117299874D01*
X133234569Y-117680280D01*
X133525720Y-117971431D01*
X133906126Y-118129000D01*
X134317874Y-118129000D01*
X134698280Y-117971431D01*
X134989431Y-117680280D01*
X135147000Y-117299874D01*
X135147000Y-116888126D01*
X134999000Y-116530822D01*
X134999000Y-116300696D01*
X135234000Y-116347440D01*
X135784000Y-116347440D01*
X136019001Y-116300696D01*
X136019001Y-116530820D01*
X135871000Y-116888126D01*
X135871000Y-117299874D01*
X136028569Y-117680280D01*
X136319720Y-117971431D01*
X136700126Y-118129000D01*
X137111874Y-118129000D01*
X137492280Y-117971431D01*
X137783431Y-117680280D01*
X137941000Y-117299874D01*
X137941000Y-116888126D01*
X137783431Y-116507720D01*
X137585695Y-116309984D01*
X137774000Y-116347440D01*
X138324000Y-116347440D01*
X138571765Y-116298157D01*
X138781809Y-116157809D01*
X138922157Y-115947765D01*
X138971440Y-115700000D01*
X138971440Y-113950000D01*
X138922157Y-113702235D01*
X138782869Y-113493777D01*
X138764904Y-113403463D01*
X138688375Y-113288929D01*
X138639329Y-113215526D01*
X138639327Y-113215524D01*
X138596929Y-113152071D01*
X138533475Y-113109673D01*
X137941000Y-112517198D01*
X137941000Y-112316126D01*
X137783431Y-111935720D01*
X137492280Y-111644569D01*
X137111874Y-111487000D01*
X136700126Y-111487000D01*
X136319720Y-111644569D01*
X136028569Y-111935720D01*
X135871000Y-112316126D01*
X135871000Y-112727874D01*
X136028569Y-113108280D01*
X136269495Y-113349206D01*
X136256235Y-113351843D01*
X136144000Y-113426837D01*
X136031765Y-113351843D01*
X135784000Y-113302560D01*
X135234000Y-113302560D01*
X134986235Y-113351843D01*
X134874000Y-113426837D01*
X134761765Y-113351843D01*
X134514000Y-113302560D01*
X133964000Y-113302560D01*
X133716235Y-113351843D01*
X133506191Y-113492191D01*
X133365843Y-113702235D01*
X133316560Y-113950000D01*
X133316560Y-115700000D01*
X133365843Y-115947765D01*
X133479001Y-116117116D01*
X133479001Y-116263288D01*
X133234569Y-116507720D01*
X133077000Y-116888126D01*
X132438886Y-116888126D01*
X132457000Y-116797065D01*
X132457000Y-116797061D01*
X132474337Y-116709901D01*
X132457000Y-116622741D01*
X132457000Y-112720855D01*
X132474337Y-112633695D01*
X132457000Y-112546535D01*
X132457000Y-112546531D01*
X132405652Y-112288386D01*
X132210049Y-111995647D01*
X132136156Y-111946273D01*
X131523680Y-111333797D01*
X131563259Y-111274563D01*
X131612542Y-111026798D01*
X131612542Y-109426798D01*
X131563259Y-109179033D01*
X131523680Y-109119799D01*
X131979259Y-108664220D01*
X132053152Y-108614846D01*
X132102949Y-108540321D01*
X132152036Y-108466857D01*
X132340690Y-108545000D01*
X132556250Y-108545000D01*
X132715000Y-108386250D01*
X132715000Y-107437000D01*
X132695000Y-107437000D01*
X132695000Y-107183000D01*
X132715000Y-107183000D01*
X132715000Y-107163000D01*
X132969000Y-107163000D01*
X132969000Y-107183000D01*
X132989000Y-107183000D01*
X132989000Y-107437000D01*
X132969000Y-107437000D01*
X132969000Y-108386250D01*
X133127750Y-108545000D01*
X133343310Y-108545000D01*
X133363620Y-108536587D01*
X133365843Y-108547765D01*
X133506191Y-108757809D01*
X133716235Y-108898157D01*
X133964000Y-108947440D01*
X134514000Y-108947440D01*
X134761765Y-108898157D01*
X134874000Y-108823163D01*
X134986235Y-108898157D01*
X135234000Y-108947440D01*
X135784000Y-108947440D01*
X136031765Y-108898157D01*
X136144000Y-108823163D01*
X136256235Y-108898157D01*
X136504000Y-108947440D01*
X137054000Y-108947440D01*
X137301765Y-108898157D01*
X137405091Y-108829117D01*
X137414301Y-108838327D01*
X137647690Y-108935000D01*
X137763250Y-108935000D01*
X137922000Y-108776250D01*
X137922000Y-107552000D01*
X138176000Y-107552000D01*
X138176000Y-108776250D01*
X138334750Y-108935000D01*
X138450310Y-108935000D01*
X138683699Y-108838327D01*
X138862327Y-108659698D01*
X138959000Y-108426309D01*
X138959000Y-107710750D01*
X138800250Y-107552000D01*
X138176000Y-107552000D01*
X137922000Y-107552000D01*
X137902000Y-107552000D01*
X137902000Y-107298000D01*
X137922000Y-107298000D01*
X137922000Y-106073750D01*
X138176000Y-106073750D01*
X138176000Y-107298000D01*
X138800250Y-107298000D01*
X138959000Y-107139250D01*
X138959000Y-106423691D01*
X138862327Y-106190302D01*
X138683699Y-106011673D01*
X138450310Y-105915000D01*
X138334750Y-105915000D01*
X138176000Y-106073750D01*
X137922000Y-106073750D01*
X137763250Y-105915000D01*
X137647690Y-105915000D01*
X137539000Y-105960021D01*
X137539000Y-105237440D01*
X137844000Y-105237440D01*
X138091765Y-105188157D01*
X138301809Y-105047809D01*
X138442157Y-104837765D01*
X138491440Y-104590000D01*
X138491440Y-103690000D01*
X138442157Y-103442235D01*
X138301809Y-103232191D01*
X138091765Y-103091843D01*
X138004000Y-103074386D01*
X138004000Y-102509686D01*
X138006809Y-102507809D01*
X138047654Y-102446680D01*
X138189302Y-102588327D01*
X138422691Y-102685000D01*
X138863250Y-102685000D01*
X139022000Y-102526250D01*
X139022000Y-101727000D01*
X139002000Y-101727000D01*
X139002000Y-101473000D01*
X139022000Y-101473000D01*
X139022000Y-101453000D01*
X139276000Y-101453000D01*
X139276000Y-101473000D01*
X139296000Y-101473000D01*
X139296000Y-101727000D01*
X139276000Y-101727000D01*
X139276000Y-102526250D01*
X139434750Y-102685000D01*
X139875309Y-102685000D01*
X140108698Y-102588327D01*
X140287327Y-102409699D01*
X140384000Y-102176310D01*
X140384000Y-101885750D01*
X140225252Y-101727002D01*
X140308504Y-101727002D01*
X140402773Y-101821271D01*
X140445173Y-101884727D01*
X140595662Y-101985281D01*
X140595662Y-102136798D01*
X140644945Y-102384563D01*
X140785293Y-102594607D01*
X140995337Y-102734955D01*
X141243102Y-102784238D01*
X142243102Y-102784238D01*
X142490867Y-102734955D01*
X142700911Y-102594607D01*
X142841259Y-102384563D01*
X142890542Y-102136798D01*
X142890542Y-101622548D01*
X143808102Y-101622548D01*
X143808102Y-102263107D01*
X143904775Y-102496496D01*
X144083403Y-102675125D01*
X144316792Y-102771798D01*
X144657352Y-102771798D01*
X144816102Y-102613048D01*
X144816102Y-101463798D01*
X145070102Y-101463798D01*
X145070102Y-102613048D01*
X145228852Y-102771798D01*
X145569412Y-102771798D01*
X145802801Y-102675125D01*
X145981429Y-102496496D01*
X146078102Y-102263107D01*
X146078102Y-101622548D01*
X145919352Y-101463798D01*
X145070102Y-101463798D01*
X144816102Y-101463798D01*
X143966852Y-101463798D01*
X143808102Y-101622548D01*
X142890542Y-101622548D01*
X142890542Y-100536798D01*
X142865418Y-100410489D01*
X143808102Y-100410489D01*
X143808102Y-101051048D01*
X143966852Y-101209798D01*
X144816102Y-101209798D01*
X144816102Y-100060548D01*
X145070102Y-100060548D01*
X145070102Y-101209798D01*
X145919352Y-101209798D01*
X146078102Y-101051048D01*
X146078102Y-100410489D01*
X145981429Y-100177100D01*
X145802801Y-99998471D01*
X145569412Y-99901798D01*
X145228852Y-99901798D01*
X145070102Y-100060548D01*
X144816102Y-100060548D01*
X144657352Y-99901798D01*
X144316792Y-99901798D01*
X144083403Y-99998471D01*
X143904775Y-100177100D01*
X143808102Y-100410489D01*
X142865418Y-100410489D01*
X142841259Y-100289033D01*
X142700911Y-100078989D01*
X142490867Y-99938641D01*
X142243102Y-99889358D01*
X141243102Y-99889358D01*
X140995337Y-99938641D01*
X140800160Y-100069055D01*
X139918105Y-99187000D01*
X150583834Y-99187000D01*
X150599511Y-99203357D01*
X151679258Y-100551826D01*
X152635945Y-101992577D01*
X153290000Y-103182300D01*
X153290001Y-121687669D01*
X143019609Y-131102196D01*
X143004327Y-131065302D01*
X142825699Y-130886673D01*
X142592310Y-130790000D01*
X141001750Y-130790000D01*
X140843000Y-130948750D01*
X140843000Y-133048000D01*
X141289017Y-133048000D01*
X141290001Y-133054384D01*
X141290001Y-133302000D01*
X140843000Y-133302000D01*
X140843000Y-135401250D01*
X141001750Y-135560000D01*
X141290001Y-135560000D01*
X141290000Y-139290000D01*
X130710000Y-139290000D01*
X130710000Y-136460750D01*
X133631000Y-136460750D01*
X133631000Y-138051309D01*
X133727673Y-138284698D01*
X133906301Y-138463327D01*
X134139690Y-138560000D01*
X135730250Y-138560000D01*
X135889000Y-138401250D01*
X135889000Y-136302000D01*
X136143000Y-136302000D01*
X136143000Y-138401250D01*
X136301750Y-138560000D01*
X137892310Y-138560000D01*
X138125699Y-138463327D01*
X138304327Y-138284698D01*
X138401000Y-138051309D01*
X138401000Y-136460750D01*
X138242250Y-136302000D01*
X136143000Y-136302000D01*
X135889000Y-136302000D01*
X133789750Y-136302000D01*
X133631000Y-136460750D01*
X130710000Y-136460750D01*
X130710000Y-134298691D01*
X133631000Y-134298691D01*
X133631000Y-135889250D01*
X133789750Y-136048000D01*
X135889000Y-136048000D01*
X135889000Y-133948750D01*
X136143000Y-133948750D01*
X136143000Y-136048000D01*
X138242250Y-136048000D01*
X138401000Y-135889250D01*
X138401000Y-135220304D01*
X138427673Y-135284698D01*
X138606301Y-135463327D01*
X138839690Y-135560000D01*
X140430250Y-135560000D01*
X140589000Y-135401250D01*
X140589000Y-133302000D01*
X138489750Y-133302000D01*
X138331000Y-133460750D01*
X138331000Y-134129696D01*
X138304327Y-134065302D01*
X138125699Y-133886673D01*
X137892310Y-133790000D01*
X136301750Y-133790000D01*
X136143000Y-133948750D01*
X135889000Y-133948750D01*
X135730250Y-133790000D01*
X134139690Y-133790000D01*
X133906301Y-133886673D01*
X133727673Y-134065302D01*
X133631000Y-134298691D01*
X130710000Y-134298691D01*
X130710000Y-133054381D01*
X130723226Y-132968555D01*
X130693347Y-132846355D01*
X130668805Y-132722972D01*
X130659933Y-132709694D01*
X130656140Y-132694182D01*
X130581763Y-132592705D01*
X130511880Y-132488119D01*
X130439682Y-132439878D01*
X118710000Y-121687670D01*
X118710000Y-109982000D01*
X119135908Y-109982000D01*
X119251161Y-110561418D01*
X119579375Y-111052625D01*
X119877761Y-111252000D01*
X119579375Y-111451375D01*
X119251161Y-111942582D01*
X119135908Y-112522000D01*
X119251161Y-113101418D01*
X119579375Y-113592625D01*
X119597619Y-113604816D01*
X119552235Y-113613843D01*
X119342191Y-113754191D01*
X119201843Y-113964235D01*
X119152560Y-114212000D01*
X119152560Y-115912000D01*
X119201843Y-116159765D01*
X119342191Y-116369809D01*
X119552235Y-116510157D01*
X119800000Y-116559440D01*
X121500000Y-116559440D01*
X121747765Y-116510157D01*
X121957809Y-116369809D01*
X122098157Y-116159765D01*
X122147440Y-115912000D01*
X122147440Y-114212000D01*
X122098157Y-113964235D01*
X121957809Y-113754191D01*
X121747765Y-113613843D01*
X121702381Y-113604816D01*
X121720625Y-113592625D01*
X122048839Y-113101418D01*
X122164092Y-112522000D01*
X122048839Y-111942582D01*
X121720625Y-111451375D01*
X121422239Y-111252000D01*
X121720625Y-111052625D01*
X122048839Y-110561418D01*
X122164092Y-109982000D01*
X122048839Y-109402582D01*
X121720625Y-108911375D01*
X121401522Y-108698157D01*
X121531358Y-108637183D01*
X121921645Y-108208924D01*
X122091476Y-107798890D01*
X121970155Y-107569000D01*
X120777000Y-107569000D01*
X120777000Y-107589000D01*
X120523000Y-107589000D01*
X120523000Y-107569000D01*
X119329845Y-107569000D01*
X119208524Y-107798890D01*
X119378355Y-108208924D01*
X119768642Y-108637183D01*
X119898478Y-108698157D01*
X119579375Y-108911375D01*
X119251161Y-109402582D01*
X119135908Y-109982000D01*
X118710000Y-109982000D01*
X118710000Y-107085110D01*
X119208524Y-107085110D01*
X119329845Y-107315000D01*
X120523000Y-107315000D01*
X120523000Y-106121181D01*
X120777000Y-106121181D01*
X120777000Y-107315000D01*
X121970155Y-107315000D01*
X122030139Y-107201336D01*
X123167542Y-107201336D01*
X123193161Y-107811460D01*
X123377357Y-108256148D01*
X123633841Y-108342554D01*
X124534395Y-107442000D01*
X124893605Y-107442000D01*
X125794159Y-108342554D01*
X126050643Y-108256148D01*
X126260458Y-107682664D01*
X126253775Y-107523496D01*
X126405403Y-107675125D01*
X126638792Y-107771798D01*
X126979352Y-107771798D01*
X127138102Y-107613048D01*
X127138102Y-106463798D01*
X127392102Y-106463798D01*
X127392102Y-107613048D01*
X127550852Y-107771798D01*
X127891412Y-107771798D01*
X128124801Y-107675125D01*
X128303429Y-107496496D01*
X128400102Y-107263107D01*
X128400102Y-106622548D01*
X128241352Y-106463798D01*
X127392102Y-106463798D01*
X127138102Y-106463798D01*
X126288852Y-106463798D01*
X126130102Y-106622548D01*
X126130102Y-106819683D01*
X126050643Y-106627852D01*
X125794159Y-106541446D01*
X124893605Y-107442000D01*
X124534395Y-107442000D01*
X123633841Y-106541446D01*
X123377357Y-106627852D01*
X123167542Y-107201336D01*
X122030139Y-107201336D01*
X122091476Y-107085110D01*
X121921645Y-106675076D01*
X121531358Y-106246817D01*
X121006892Y-106000514D01*
X120777000Y-106121181D01*
X120523000Y-106121181D01*
X120293108Y-106000514D01*
X119768642Y-106246817D01*
X119378355Y-106675076D01*
X119208524Y-107085110D01*
X118710000Y-107085110D01*
X118710000Y-103184382D01*
X119476214Y-101808616D01*
X120447586Y-100380094D01*
X121424647Y-99187000D01*
X129090098Y-99187000D01*
X128208044Y-100069055D01*
X128208044Y-100069055D01*
G37*
X128208044Y-100069055D02*
X128012867Y-99938641D01*
X127765102Y-99889358D01*
X126765102Y-99889358D01*
X126517337Y-99938641D01*
X126307293Y-100078989D01*
X126166945Y-100289033D01*
X126117662Y-100536798D01*
X126117662Y-102136798D01*
X126166945Y-102384563D01*
X126307293Y-102594607D01*
X126517337Y-102734955D01*
X126765102Y-102784238D01*
X127765102Y-102784238D01*
X128012867Y-102734955D01*
X128222911Y-102594607D01*
X128363259Y-102384563D01*
X128412542Y-102136798D01*
X128412542Y-101985281D01*
X128563031Y-101884727D01*
X128605433Y-101821268D01*
X129317662Y-101109039D01*
X129317662Y-102136798D01*
X129366945Y-102384563D01*
X129507293Y-102594607D01*
X129563665Y-102632274D01*
X129562765Y-102636798D01*
X129580102Y-102723959D01*
X129580102Y-102723962D01*
X129631450Y-102982107D01*
X129827053Y-103274847D01*
X129900949Y-103324223D01*
X130593725Y-104017000D01*
X125999817Y-104017000D01*
X125583507Y-103600690D01*
X125019330Y-103367000D01*
X124408670Y-103367000D01*
X123844493Y-103600690D01*
X123412690Y-104032493D01*
X123179000Y-104596670D01*
X123179000Y-105207330D01*
X123412690Y-105771507D01*
X123844493Y-106203310D01*
X123864115Y-106211438D01*
X123813446Y-106361841D01*
X124714000Y-107262395D01*
X125614554Y-106361841D01*
X125563885Y-106211438D01*
X125583507Y-106203310D01*
X125999817Y-105787000D01*
X126130102Y-105787000D01*
X126130102Y-106051048D01*
X126288852Y-106209798D01*
X127138102Y-106209798D01*
X127138102Y-106189798D01*
X127392102Y-106189798D01*
X127392102Y-106209798D01*
X128241352Y-106209798D01*
X128400102Y-106051048D01*
X128400102Y-105787000D01*
X129317662Y-105787000D01*
X129317662Y-106709435D01*
X127247741Y-108779358D01*
X126765102Y-108779358D01*
X126517337Y-108828641D01*
X126307293Y-108968989D01*
X126166945Y-109179033D01*
X126126693Y-109381395D01*
X126015310Y-109112493D01*
X125583507Y-108680690D01*
X125563885Y-108672562D01*
X125614554Y-108522159D01*
X124714000Y-107621605D01*
X123813446Y-108522159D01*
X123864115Y-108672562D01*
X123844493Y-108680690D01*
X123412690Y-109112493D01*
X123179000Y-109676670D01*
X123179000Y-110287330D01*
X123412690Y-110851507D01*
X123813183Y-111252000D01*
X123412690Y-111652493D01*
X123179000Y-112216670D01*
X123179000Y-112827330D01*
X123412690Y-113391507D01*
X123813183Y-113792000D01*
X123412690Y-114192493D01*
X123179000Y-114756670D01*
X123179000Y-115367330D01*
X123412690Y-115931507D01*
X123813183Y-116332000D01*
X123412690Y-116732493D01*
X123179000Y-117296670D01*
X123179000Y-117907330D01*
X123412690Y-118471507D01*
X123813183Y-118872000D01*
X123412690Y-119272493D01*
X123179000Y-119836670D01*
X123179000Y-120447330D01*
X123412690Y-121011507D01*
X123813183Y-121412000D01*
X123412690Y-121812493D01*
X123179000Y-122376670D01*
X123179000Y-122987330D01*
X123412690Y-123551507D01*
X123844493Y-123983310D01*
X123953790Y-124028582D01*
X123954001Y-124029644D01*
X123998097Y-124251329D01*
X124166072Y-124502721D01*
X124229528Y-124545121D01*
X126346560Y-126662154D01*
X126346560Y-126688000D01*
X126395843Y-126935765D01*
X126536191Y-127145809D01*
X126746235Y-127286157D01*
X126994000Y-127335440D01*
X128194000Y-127335440D01*
X128441765Y-127286157D01*
X128651809Y-127145809D01*
X128694000Y-127082666D01*
X128736191Y-127145809D01*
X128946235Y-127286157D01*
X129194000Y-127335440D01*
X130394000Y-127335440D01*
X130641765Y-127286157D01*
X130851809Y-127145809D01*
X130992157Y-126935765D01*
X131041440Y-126688000D01*
X131041440Y-125788000D01*
X130995720Y-125558148D01*
X131212867Y-125514955D01*
X131422911Y-125374607D01*
X131563259Y-125164563D01*
X131612542Y-124916798D01*
X131612542Y-124479120D01*
X132467560Y-125334139D01*
X132467560Y-126730000D01*
X132516843Y-126977765D01*
X132657191Y-127187809D01*
X132867235Y-127328157D01*
X133115000Y-127377440D01*
X133230001Y-127377440D01*
X133230001Y-128186835D01*
X133212663Y-128274000D01*
X133281348Y-128619309D01*
X133427576Y-128838154D01*
X133427578Y-128838156D01*
X133476952Y-128912049D01*
X133550845Y-128961423D01*
X133618560Y-129029138D01*
X133618560Y-131925000D01*
X133667843Y-132172765D01*
X133808191Y-132382809D01*
X134018235Y-132523157D01*
X134266000Y-132572440D01*
X137766000Y-132572440D01*
X138013765Y-132523157D01*
X138223809Y-132382809D01*
X138331000Y-132222388D01*
X138331000Y-132889250D01*
X138489750Y-133048000D01*
X140589000Y-133048000D01*
X140589000Y-130948750D01*
X140430250Y-130790000D01*
X138839690Y-130790000D01*
X138606301Y-130886673D01*
X138427673Y-131065302D01*
X138413440Y-131099663D01*
X138413440Y-128425000D01*
X138364157Y-128177235D01*
X138223809Y-127967191D01*
X138013765Y-127826843D01*
X137766000Y-127777560D01*
X135000000Y-127777560D01*
X135000000Y-127377440D01*
X135115000Y-127377440D01*
X135362765Y-127328157D01*
X135572809Y-127187809D01*
X135713157Y-126977765D01*
X135732099Y-126882532D01*
X136642073Y-126882532D01*
X136740736Y-127149387D01*
X137350461Y-127375908D01*
X138000460Y-127351856D01*
X138489264Y-127149387D01*
X138587927Y-126882532D01*
X137615000Y-125909605D01*
X136642073Y-126882532D01*
X135732099Y-126882532D01*
X135762440Y-126730000D01*
X135762440Y-125465461D01*
X135969092Y-125465461D01*
X135993144Y-126115460D01*
X136195613Y-126604264D01*
X136462468Y-126702927D01*
X137435395Y-125730000D01*
X137794605Y-125730000D01*
X138767532Y-126702927D01*
X139034387Y-126604264D01*
X139260908Y-125994539D01*
X139236856Y-125344540D01*
X139034387Y-124855736D01*
X138767532Y-124757073D01*
X137794605Y-125730000D01*
X137435395Y-125730000D01*
X136462468Y-124757073D01*
X136195613Y-124855736D01*
X135969092Y-125465461D01*
X135762440Y-125465461D01*
X135762440Y-124730000D01*
X135732100Y-124577468D01*
X136642073Y-124577468D01*
X137615000Y-125550395D01*
X138587927Y-124577468D01*
X138489264Y-124310613D01*
X137879539Y-124084092D01*
X137229540Y-124108144D01*
X136740736Y-124310613D01*
X136642073Y-124577468D01*
X135732100Y-124577468D01*
X135713157Y-124482235D01*
X135572809Y-124272191D01*
X135362765Y-124131843D01*
X135115000Y-124082560D01*
X133719139Y-124082560D01*
X133636705Y-124000126D01*
X139427000Y-124000126D01*
X139427000Y-124411874D01*
X139584569Y-124792280D01*
X139875720Y-125083431D01*
X140256126Y-125241000D01*
X140667874Y-125241000D01*
X140689918Y-125231869D01*
X140785293Y-125374607D01*
X140995337Y-125514955D01*
X141243102Y-125564238D01*
X142243102Y-125564238D01*
X142490867Y-125514955D01*
X142700911Y-125374607D01*
X142841259Y-125164563D01*
X142890542Y-124916798D01*
X142890542Y-123316798D01*
X143795662Y-123316798D01*
X143795662Y-124916798D01*
X143844945Y-125164563D01*
X143985293Y-125374607D01*
X144195337Y-125514955D01*
X144443102Y-125564238D01*
X145443102Y-125564238D01*
X145690867Y-125514955D01*
X145900911Y-125374607D01*
X146041259Y-125164563D01*
X146090542Y-124916798D01*
X146090542Y-123316798D01*
X146041259Y-123069033D01*
X145900911Y-122858989D01*
X145690867Y-122718641D01*
X145443102Y-122669358D01*
X144443102Y-122669358D01*
X144195337Y-122718641D01*
X143985293Y-122858989D01*
X143844945Y-123069033D01*
X143795662Y-123316798D01*
X142890542Y-123316798D01*
X142841259Y-123069033D01*
X142700911Y-122858989D01*
X142490867Y-122718641D01*
X142243102Y-122669358D01*
X141847241Y-122669358D01*
X141347000Y-122169118D01*
X141347000Y-120564238D01*
X142243102Y-120564238D01*
X142490867Y-120514955D01*
X142700911Y-120374607D01*
X142841259Y-120164563D01*
X142890542Y-119916798D01*
X142890542Y-119402548D01*
X143808102Y-119402548D01*
X143808102Y-120043107D01*
X143904775Y-120276496D01*
X144083403Y-120455125D01*
X144316792Y-120551798D01*
X144657352Y-120551798D01*
X144816102Y-120393048D01*
X144816102Y-119243798D01*
X143966852Y-119243798D01*
X143808102Y-119402548D01*
X142890542Y-119402548D01*
X142890542Y-118654159D01*
X143354212Y-118190489D01*
X143808102Y-118190489D01*
X143808102Y-118831048D01*
X143966852Y-118989798D01*
X144816102Y-118989798D01*
X144816102Y-117840548D01*
X145070102Y-117840548D01*
X145070102Y-118989798D01*
X145919352Y-118989798D01*
X146078102Y-118831048D01*
X146078102Y-118190489D01*
X145981429Y-117957100D01*
X145802801Y-117778471D01*
X145569412Y-117681798D01*
X145228852Y-117681798D01*
X145070102Y-117840548D01*
X144816102Y-117840548D01*
X144657352Y-117681798D01*
X144316792Y-117681798D01*
X144083403Y-117778471D01*
X143904775Y-117957100D01*
X143808102Y-118190489D01*
X143354212Y-118190489D01*
X144870465Y-116674238D01*
X145443102Y-116674238D01*
X145690867Y-116624955D01*
X145900911Y-116484607D01*
X146041259Y-116274563D01*
X146090542Y-116026798D01*
X146090542Y-115491763D01*
X146272690Y-115931507D01*
X146673183Y-116332000D01*
X146272690Y-116732493D01*
X146039000Y-117296670D01*
X146039000Y-117907330D01*
X146272690Y-118471507D01*
X146673183Y-118872000D01*
X146272690Y-119272493D01*
X146078102Y-119742270D01*
X146078102Y-119402548D01*
X145919352Y-119243798D01*
X145070102Y-119243798D01*
X145070102Y-120393048D01*
X145228852Y-120551798D01*
X145569412Y-120551798D01*
X145802801Y-120455125D01*
X145981429Y-120276496D01*
X146039000Y-120137507D01*
X146039000Y-120447330D01*
X146272690Y-121011507D01*
X146673183Y-121412000D01*
X146272690Y-121812493D01*
X146039000Y-122376670D01*
X146039000Y-122987330D01*
X146272690Y-123551507D01*
X146704493Y-123983310D01*
X147268670Y-124217000D01*
X147879330Y-124217000D01*
X148443507Y-123983310D01*
X148875310Y-123551507D01*
X149109000Y-122987330D01*
X149109000Y-122376670D01*
X148875310Y-121812493D01*
X148474817Y-121412000D01*
X148875310Y-121011507D01*
X149109000Y-120447330D01*
X149109000Y-119836670D01*
X148875310Y-119272493D01*
X148474817Y-118872000D01*
X148875310Y-118471507D01*
X149109000Y-117907330D01*
X149109000Y-117296670D01*
X148875310Y-116732493D01*
X148474817Y-116332000D01*
X148875310Y-115931507D01*
X149109000Y-115367330D01*
X149109000Y-115347750D01*
X149899000Y-115347750D01*
X149899000Y-116038310D01*
X149995673Y-116271699D01*
X150174302Y-116450327D01*
X150407691Y-116547000D01*
X151098250Y-116547000D01*
X151257000Y-116388250D01*
X151257000Y-115189000D01*
X151511000Y-115189000D01*
X151511000Y-116388250D01*
X151669750Y-116547000D01*
X152360309Y-116547000D01*
X152593698Y-116450327D01*
X152772327Y-116271699D01*
X152869000Y-116038310D01*
X152869000Y-115347750D01*
X152710250Y-115189000D01*
X151511000Y-115189000D01*
X151257000Y-115189000D01*
X150057750Y-115189000D01*
X149899000Y-115347750D01*
X149109000Y-115347750D01*
X149109000Y-114756670D01*
X148875310Y-114192493D01*
X148474817Y-113792000D01*
X148875310Y-113391507D01*
X149109000Y-112827330D01*
X149109000Y-112216670D01*
X148875310Y-111652493D01*
X148474817Y-111252000D01*
X148875310Y-110851507D01*
X148958986Y-110649495D01*
X149137929Y-110529929D01*
X149180331Y-110466470D01*
X150852473Y-108794329D01*
X150915929Y-108751929D01*
X151007525Y-108614846D01*
X151083904Y-108500538D01*
X151106637Y-108386250D01*
X151128000Y-108278852D01*
X151128000Y-108278848D01*
X151132000Y-108258736D01*
X151132001Y-109907144D01*
X151132000Y-109907149D01*
X151132001Y-111058034D01*
X150804582Y-111123161D01*
X150313375Y-111451375D01*
X149985161Y-111942582D01*
X149869908Y-112522000D01*
X149985161Y-113101418D01*
X150313375Y-113592625D01*
X150335033Y-113607096D01*
X150174302Y-113673673D01*
X149995673Y-113852301D01*
X149899000Y-114085690D01*
X149899000Y-114776250D01*
X150057750Y-114935000D01*
X151257000Y-114935000D01*
X151257000Y-114915000D01*
X151511000Y-114915000D01*
X151511000Y-114935000D01*
X152710250Y-114935000D01*
X152869000Y-114776250D01*
X152869000Y-114085690D01*
X152772327Y-113852301D01*
X152593698Y-113673673D01*
X152432967Y-113607096D01*
X152454625Y-113592625D01*
X152782839Y-113101418D01*
X152898092Y-112522000D01*
X152782839Y-111942582D01*
X152652000Y-111746768D01*
X152652000Y-107974459D01*
X152724809Y-107925809D01*
X152865157Y-107715765D01*
X152914440Y-107468000D01*
X152914440Y-106268000D01*
X152865157Y-106020235D01*
X152804127Y-105928898D01*
X152805327Y-105927698D01*
X152902000Y-105694309D01*
X152902000Y-105253750D01*
X152743250Y-105095000D01*
X152019000Y-105095000D01*
X152019000Y-105115000D01*
X151765000Y-105115000D01*
X151765000Y-105095000D01*
X151745000Y-105095000D01*
X151745000Y-104841000D01*
X151765000Y-104841000D01*
X151765000Y-103891750D01*
X152019000Y-103891750D01*
X152019000Y-104841000D01*
X152743250Y-104841000D01*
X152902000Y-104682250D01*
X152902000Y-104241691D01*
X152805327Y-104008302D01*
X152626699Y-103829673D01*
X152393310Y-103733000D01*
X152177750Y-103733000D01*
X152019000Y-103891750D01*
X151765000Y-103891750D01*
X151606250Y-103733000D01*
X151390690Y-103733000D01*
X151286482Y-103776164D01*
X151275809Y-103760191D01*
X151065765Y-103619843D01*
X150818000Y-103570560D01*
X149918000Y-103570560D01*
X149670235Y-103619843D01*
X149460191Y-103760191D01*
X149319843Y-103970235D01*
X149285677Y-104142000D01*
X148920669Y-104142000D01*
X148875310Y-104032493D01*
X148443507Y-103600690D01*
X147879330Y-103367000D01*
X147268670Y-103367000D01*
X146704493Y-103600690D01*
X146272690Y-104032493D01*
X146039000Y-104596670D01*
X146039000Y-105207330D01*
X146272690Y-105771507D01*
X146673183Y-106172000D01*
X146272690Y-106572493D01*
X146090542Y-107012237D01*
X146090542Y-105536798D01*
X146041259Y-105289033D01*
X145900911Y-105078989D01*
X145690867Y-104938641D01*
X145443102Y-104889358D01*
X144443102Y-104889358D01*
X144195337Y-104938641D01*
X143985293Y-105078989D01*
X143844945Y-105289033D01*
X143795662Y-105536798D01*
X143795662Y-106799435D01*
X142503786Y-108091313D01*
X142576754Y-107982108D01*
X142578580Y-107972929D01*
X142628102Y-107723963D01*
X142628102Y-107723959D01*
X142645439Y-107636798D01*
X142644539Y-107632274D01*
X142700911Y-107594607D01*
X142841259Y-107384563D01*
X142890542Y-107136798D01*
X142890542Y-105536798D01*
X142841259Y-105289033D01*
X142700911Y-105078989D01*
X142490867Y-104938641D01*
X142243102Y-104889358D01*
X141243102Y-104889358D01*
X140995337Y-104938641D01*
X140785293Y-105078989D01*
X140644945Y-105289033D01*
X140595662Y-105536798D01*
X140595662Y-107136798D01*
X140644945Y-107384563D01*
X140684524Y-107443797D01*
X139897847Y-108230475D01*
X139823951Y-108279851D01*
X139628348Y-108572591D01*
X139577000Y-108830736D01*
X139577000Y-108830739D01*
X139559663Y-108917900D01*
X139577000Y-109005061D01*
X139577001Y-112558531D01*
X139559663Y-112645696D01*
X139628348Y-112991005D01*
X139774576Y-113209850D01*
X139774578Y-113209852D01*
X139823952Y-113283745D01*
X139897845Y-113333119D01*
X140684524Y-114119799D01*
X140644945Y-114179033D01*
X140595662Y-114426798D01*
X140595662Y-115422659D01*
X139897847Y-116120475D01*
X139823951Y-116169851D01*
X139628348Y-116462591D01*
X139577000Y-116720736D01*
X139577000Y-116720739D01*
X139559663Y-116807900D01*
X139577000Y-116895061D01*
X139577001Y-122448531D01*
X139559663Y-122535696D01*
X139628348Y-122881005D01*
X139774576Y-123099850D01*
X139774578Y-123099852D01*
X139823952Y-123173745D01*
X139897845Y-123223119D01*
X139965929Y-123291203D01*
X139875720Y-123328569D01*
X139584569Y-123619720D01*
X139427000Y-124000126D01*
X133636705Y-124000126D01*
X132457000Y-122820422D01*
X132457000Y-120310855D01*
X132474337Y-120223695D01*
X132457000Y-120136535D01*
X132457000Y-120136531D01*
X132405652Y-119878386D01*
X132210049Y-119585647D01*
X132136156Y-119536273D01*
X131612542Y-119012660D01*
X131612542Y-118316798D01*
X131563259Y-118069033D01*
X131523680Y-118009799D01*
X132136156Y-117397323D01*
X132210049Y-117347949D01*
X132405652Y-117055210D01*
X132438886Y-116888126D01*
X133077000Y-116888126D01*
X133077000Y-117299874D01*
X133234569Y-117680280D01*
X133525720Y-117971431D01*
X133906126Y-118129000D01*
X134317874Y-118129000D01*
X134698280Y-117971431D01*
X134989431Y-117680280D01*
X135147000Y-117299874D01*
X135147000Y-116888126D01*
X134999000Y-116530822D01*
X134999000Y-116300696D01*
X135234000Y-116347440D01*
X135784000Y-116347440D01*
X136019001Y-116300696D01*
X136019001Y-116530820D01*
X135871000Y-116888126D01*
X135871000Y-117299874D01*
X136028569Y-117680280D01*
X136319720Y-117971431D01*
X136700126Y-118129000D01*
X137111874Y-118129000D01*
X137492280Y-117971431D01*
X137783431Y-117680280D01*
X137941000Y-117299874D01*
X137941000Y-116888126D01*
X137783431Y-116507720D01*
X137585695Y-116309984D01*
X137774000Y-116347440D01*
X138324000Y-116347440D01*
X138571765Y-116298157D01*
X138781809Y-116157809D01*
X138922157Y-115947765D01*
X138971440Y-115700000D01*
X138971440Y-113950000D01*
X138922157Y-113702235D01*
X138782869Y-113493777D01*
X138764904Y-113403463D01*
X138688375Y-113288929D01*
X138639329Y-113215526D01*
X138639327Y-113215524D01*
X138596929Y-113152071D01*
X138533475Y-113109673D01*
X137941000Y-112517198D01*
X137941000Y-112316126D01*
X137783431Y-111935720D01*
X137492280Y-111644569D01*
X137111874Y-111487000D01*
X136700126Y-111487000D01*
X136319720Y-111644569D01*
X136028569Y-111935720D01*
X135871000Y-112316126D01*
X135871000Y-112727874D01*
X136028569Y-113108280D01*
X136269495Y-113349206D01*
X136256235Y-113351843D01*
X136144000Y-113426837D01*
X136031765Y-113351843D01*
X135784000Y-113302560D01*
X135234000Y-113302560D01*
X134986235Y-113351843D01*
X134874000Y-113426837D01*
X134761765Y-113351843D01*
X134514000Y-113302560D01*
X133964000Y-113302560D01*
X133716235Y-113351843D01*
X133506191Y-113492191D01*
X133365843Y-113702235D01*
X133316560Y-113950000D01*
X133316560Y-115700000D01*
X133365843Y-115947765D01*
X133479001Y-116117116D01*
X133479001Y-116263288D01*
X133234569Y-116507720D01*
X133077000Y-116888126D01*
X132438886Y-116888126D01*
X132457000Y-116797065D01*
X132457000Y-116797061D01*
X132474337Y-116709901D01*
X132457000Y-116622741D01*
X132457000Y-112720855D01*
X132474337Y-112633695D01*
X132457000Y-112546535D01*
X132457000Y-112546531D01*
X132405652Y-112288386D01*
X132210049Y-111995647D01*
X132136156Y-111946273D01*
X131523680Y-111333797D01*
X131563259Y-111274563D01*
X131612542Y-111026798D01*
X131612542Y-109426798D01*
X131563259Y-109179033D01*
X131523680Y-109119799D01*
X131979259Y-108664220D01*
X132053152Y-108614846D01*
X132102949Y-108540321D01*
X132152036Y-108466857D01*
X132340690Y-108545000D01*
X132556250Y-108545000D01*
X132715000Y-108386250D01*
X132715000Y-107437000D01*
X132695000Y-107437000D01*
X132695000Y-107183000D01*
X132715000Y-107183000D01*
X132715000Y-107163000D01*
X132969000Y-107163000D01*
X132969000Y-107183000D01*
X132989000Y-107183000D01*
X132989000Y-107437000D01*
X132969000Y-107437000D01*
X132969000Y-108386250D01*
X133127750Y-108545000D01*
X133343310Y-108545000D01*
X133363620Y-108536587D01*
X133365843Y-108547765D01*
X133506191Y-108757809D01*
X133716235Y-108898157D01*
X133964000Y-108947440D01*
X134514000Y-108947440D01*
X134761765Y-108898157D01*
X134874000Y-108823163D01*
X134986235Y-108898157D01*
X135234000Y-108947440D01*
X135784000Y-108947440D01*
X136031765Y-108898157D01*
X136144000Y-108823163D01*
X136256235Y-108898157D01*
X136504000Y-108947440D01*
X137054000Y-108947440D01*
X137301765Y-108898157D01*
X137405091Y-108829117D01*
X137414301Y-108838327D01*
X137647690Y-108935000D01*
X137763250Y-108935000D01*
X137922000Y-108776250D01*
X137922000Y-107552000D01*
X138176000Y-107552000D01*
X138176000Y-108776250D01*
X138334750Y-108935000D01*
X138450310Y-108935000D01*
X138683699Y-108838327D01*
X138862327Y-108659698D01*
X138959000Y-108426309D01*
X138959000Y-107710750D01*
X138800250Y-107552000D01*
X138176000Y-107552000D01*
X137922000Y-107552000D01*
X137902000Y-107552000D01*
X137902000Y-107298000D01*
X137922000Y-107298000D01*
X137922000Y-106073750D01*
X138176000Y-106073750D01*
X138176000Y-107298000D01*
X138800250Y-107298000D01*
X138959000Y-107139250D01*
X138959000Y-106423691D01*
X138862327Y-106190302D01*
X138683699Y-106011673D01*
X138450310Y-105915000D01*
X138334750Y-105915000D01*
X138176000Y-106073750D01*
X137922000Y-106073750D01*
X137763250Y-105915000D01*
X137647690Y-105915000D01*
X137539000Y-105960021D01*
X137539000Y-105237440D01*
X137844000Y-105237440D01*
X138091765Y-105188157D01*
X138301809Y-105047809D01*
X138442157Y-104837765D01*
X138491440Y-104590000D01*
X138491440Y-103690000D01*
X138442157Y-103442235D01*
X138301809Y-103232191D01*
X138091765Y-103091843D01*
X138004000Y-103074386D01*
X138004000Y-102509686D01*
X138006809Y-102507809D01*
X138047654Y-102446680D01*
X138189302Y-102588327D01*
X138422691Y-102685000D01*
X138863250Y-102685000D01*
X139022000Y-102526250D01*
X139022000Y-101727000D01*
X139002000Y-101727000D01*
X139002000Y-101473000D01*
X139022000Y-101473000D01*
X139022000Y-101453000D01*
X139276000Y-101453000D01*
X139276000Y-101473000D01*
X139296000Y-101473000D01*
X139296000Y-101727000D01*
X139276000Y-101727000D01*
X139276000Y-102526250D01*
X139434750Y-102685000D01*
X139875309Y-102685000D01*
X140108698Y-102588327D01*
X140287327Y-102409699D01*
X140384000Y-102176310D01*
X140384000Y-101885750D01*
X140225252Y-101727002D01*
X140308504Y-101727002D01*
X140402773Y-101821271D01*
X140445173Y-101884727D01*
X140595662Y-101985281D01*
X140595662Y-102136798D01*
X140644945Y-102384563D01*
X140785293Y-102594607D01*
X140995337Y-102734955D01*
X141243102Y-102784238D01*
X142243102Y-102784238D01*
X142490867Y-102734955D01*
X142700911Y-102594607D01*
X142841259Y-102384563D01*
X142890542Y-102136798D01*
X142890542Y-101622548D01*
X143808102Y-101622548D01*
X143808102Y-102263107D01*
X143904775Y-102496496D01*
X144083403Y-102675125D01*
X144316792Y-102771798D01*
X144657352Y-102771798D01*
X144816102Y-102613048D01*
X144816102Y-101463798D01*
X145070102Y-101463798D01*
X145070102Y-102613048D01*
X145228852Y-102771798D01*
X145569412Y-102771798D01*
X145802801Y-102675125D01*
X145981429Y-102496496D01*
X146078102Y-102263107D01*
X146078102Y-101622548D01*
X145919352Y-101463798D01*
X145070102Y-101463798D01*
X144816102Y-101463798D01*
X143966852Y-101463798D01*
X143808102Y-101622548D01*
X142890542Y-101622548D01*
X142890542Y-100536798D01*
X142865418Y-100410489D01*
X143808102Y-100410489D01*
X143808102Y-101051048D01*
X143966852Y-101209798D01*
X144816102Y-101209798D01*
X144816102Y-100060548D01*
X145070102Y-100060548D01*
X145070102Y-101209798D01*
X145919352Y-101209798D01*
X146078102Y-101051048D01*
X146078102Y-100410489D01*
X145981429Y-100177100D01*
X145802801Y-99998471D01*
X145569412Y-99901798D01*
X145228852Y-99901798D01*
X145070102Y-100060548D01*
X144816102Y-100060548D01*
X144657352Y-99901798D01*
X144316792Y-99901798D01*
X144083403Y-99998471D01*
X143904775Y-100177100D01*
X143808102Y-100410489D01*
X142865418Y-100410489D01*
X142841259Y-100289033D01*
X142700911Y-100078989D01*
X142490867Y-99938641D01*
X142243102Y-99889358D01*
X141243102Y-99889358D01*
X140995337Y-99938641D01*
X140800160Y-100069055D01*
X139918105Y-99187000D01*
X150583834Y-99187000D01*
X150599511Y-99203357D01*
X151679258Y-100551826D01*
X152635945Y-101992577D01*
X153290000Y-103182300D01*
X153290001Y-121687669D01*
X143019609Y-131102196D01*
X143004327Y-131065302D01*
X142825699Y-130886673D01*
X142592310Y-130790000D01*
X141001750Y-130790000D01*
X140843000Y-130948750D01*
X140843000Y-133048000D01*
X141289017Y-133048000D01*
X141290001Y-133054384D01*
X141290001Y-133302000D01*
X140843000Y-133302000D01*
X140843000Y-135401250D01*
X141001750Y-135560000D01*
X141290001Y-135560000D01*
X141290000Y-139290000D01*
X130710000Y-139290000D01*
X130710000Y-136460750D01*
X133631000Y-136460750D01*
X133631000Y-138051309D01*
X133727673Y-138284698D01*
X133906301Y-138463327D01*
X134139690Y-138560000D01*
X135730250Y-138560000D01*
X135889000Y-138401250D01*
X135889000Y-136302000D01*
X136143000Y-136302000D01*
X136143000Y-138401250D01*
X136301750Y-138560000D01*
X137892310Y-138560000D01*
X138125699Y-138463327D01*
X138304327Y-138284698D01*
X138401000Y-138051309D01*
X138401000Y-136460750D01*
X138242250Y-136302000D01*
X136143000Y-136302000D01*
X135889000Y-136302000D01*
X133789750Y-136302000D01*
X133631000Y-136460750D01*
X130710000Y-136460750D01*
X130710000Y-134298691D01*
X133631000Y-134298691D01*
X133631000Y-135889250D01*
X133789750Y-136048000D01*
X135889000Y-136048000D01*
X135889000Y-133948750D01*
X136143000Y-133948750D01*
X136143000Y-136048000D01*
X138242250Y-136048000D01*
X138401000Y-135889250D01*
X138401000Y-135220304D01*
X138427673Y-135284698D01*
X138606301Y-135463327D01*
X138839690Y-135560000D01*
X140430250Y-135560000D01*
X140589000Y-135401250D01*
X140589000Y-133302000D01*
X138489750Y-133302000D01*
X138331000Y-133460750D01*
X138331000Y-134129696D01*
X138304327Y-134065302D01*
X138125699Y-133886673D01*
X137892310Y-133790000D01*
X136301750Y-133790000D01*
X136143000Y-133948750D01*
X135889000Y-133948750D01*
X135730250Y-133790000D01*
X134139690Y-133790000D01*
X133906301Y-133886673D01*
X133727673Y-134065302D01*
X133631000Y-134298691D01*
X130710000Y-134298691D01*
X130710000Y-133054381D01*
X130723226Y-132968555D01*
X130693347Y-132846355D01*
X130668805Y-132722972D01*
X130659933Y-132709694D01*
X130656140Y-132694182D01*
X130581763Y-132592705D01*
X130511880Y-132488119D01*
X130439682Y-132439878D01*
X118710000Y-121687670D01*
X118710000Y-109982000D01*
X119135908Y-109982000D01*
X119251161Y-110561418D01*
X119579375Y-111052625D01*
X119877761Y-111252000D01*
X119579375Y-111451375D01*
X119251161Y-111942582D01*
X119135908Y-112522000D01*
X119251161Y-113101418D01*
X119579375Y-113592625D01*
X119597619Y-113604816D01*
X119552235Y-113613843D01*
X119342191Y-113754191D01*
X119201843Y-113964235D01*
X119152560Y-114212000D01*
X119152560Y-115912000D01*
X119201843Y-116159765D01*
X119342191Y-116369809D01*
X119552235Y-116510157D01*
X119800000Y-116559440D01*
X121500000Y-116559440D01*
X121747765Y-116510157D01*
X121957809Y-116369809D01*
X122098157Y-116159765D01*
X122147440Y-115912000D01*
X122147440Y-114212000D01*
X122098157Y-113964235D01*
X121957809Y-113754191D01*
X121747765Y-113613843D01*
X121702381Y-113604816D01*
X121720625Y-113592625D01*
X122048839Y-113101418D01*
X122164092Y-112522000D01*
X122048839Y-111942582D01*
X121720625Y-111451375D01*
X121422239Y-111252000D01*
X121720625Y-111052625D01*
X122048839Y-110561418D01*
X122164092Y-109982000D01*
X122048839Y-109402582D01*
X121720625Y-108911375D01*
X121401522Y-108698157D01*
X121531358Y-108637183D01*
X121921645Y-108208924D01*
X122091476Y-107798890D01*
X121970155Y-107569000D01*
X120777000Y-107569000D01*
X120777000Y-107589000D01*
X120523000Y-107589000D01*
X120523000Y-107569000D01*
X119329845Y-107569000D01*
X119208524Y-107798890D01*
X119378355Y-108208924D01*
X119768642Y-108637183D01*
X119898478Y-108698157D01*
X119579375Y-108911375D01*
X119251161Y-109402582D01*
X119135908Y-109982000D01*
X118710000Y-109982000D01*
X118710000Y-107085110D01*
X119208524Y-107085110D01*
X119329845Y-107315000D01*
X120523000Y-107315000D01*
X120523000Y-106121181D01*
X120777000Y-106121181D01*
X120777000Y-107315000D01*
X121970155Y-107315000D01*
X122030139Y-107201336D01*
X123167542Y-107201336D01*
X123193161Y-107811460D01*
X123377357Y-108256148D01*
X123633841Y-108342554D01*
X124534395Y-107442000D01*
X124893605Y-107442000D01*
X125794159Y-108342554D01*
X126050643Y-108256148D01*
X126260458Y-107682664D01*
X126253775Y-107523496D01*
X126405403Y-107675125D01*
X126638792Y-107771798D01*
X126979352Y-107771798D01*
X127138102Y-107613048D01*
X127138102Y-106463798D01*
X127392102Y-106463798D01*
X127392102Y-107613048D01*
X127550852Y-107771798D01*
X127891412Y-107771798D01*
X128124801Y-107675125D01*
X128303429Y-107496496D01*
X128400102Y-107263107D01*
X128400102Y-106622548D01*
X128241352Y-106463798D01*
X127392102Y-106463798D01*
X127138102Y-106463798D01*
X126288852Y-106463798D01*
X126130102Y-106622548D01*
X126130102Y-106819683D01*
X126050643Y-106627852D01*
X125794159Y-106541446D01*
X124893605Y-107442000D01*
X124534395Y-107442000D01*
X123633841Y-106541446D01*
X123377357Y-106627852D01*
X123167542Y-107201336D01*
X122030139Y-107201336D01*
X122091476Y-107085110D01*
X121921645Y-106675076D01*
X121531358Y-106246817D01*
X121006892Y-106000514D01*
X120777000Y-106121181D01*
X120523000Y-106121181D01*
X120293108Y-106000514D01*
X119768642Y-106246817D01*
X119378355Y-106675076D01*
X119208524Y-107085110D01*
X118710000Y-107085110D01*
X118710000Y-103184382D01*
X119476214Y-101808616D01*
X120447586Y-100380094D01*
X121424647Y-99187000D01*
X129090098Y-99187000D01*
X128208044Y-100069055D01*
G36*
X146039000Y-107747330D02*
X146272690Y-108311507D01*
X146673183Y-108712000D01*
X146272690Y-109112493D01*
X146078102Y-109582270D01*
X146078102Y-109300489D01*
X145981429Y-109067100D01*
X145802801Y-108888471D01*
X145569412Y-108791798D01*
X145228852Y-108791798D01*
X145070102Y-108950548D01*
X145070102Y-110099798D01*
X145090102Y-110099798D01*
X145090102Y-110353798D01*
X145070102Y-110353798D01*
X145070102Y-111503048D01*
X145228852Y-111661798D01*
X145569412Y-111661798D01*
X145802801Y-111565125D01*
X145981429Y-111386496D01*
X146078102Y-111153107D01*
X146078102Y-110512548D01*
X145919354Y-110353800D01*
X146066533Y-110353800D01*
X146272690Y-110851507D01*
X146673183Y-111252000D01*
X146272690Y-111652493D01*
X146039000Y-112216670D01*
X146039000Y-112827330D01*
X146272690Y-113391507D01*
X146673183Y-113792000D01*
X146272690Y-114192493D01*
X146090542Y-114632237D01*
X146090542Y-114426798D01*
X146041259Y-114179033D01*
X145900911Y-113968989D01*
X145690867Y-113828641D01*
X145443102Y-113779358D01*
X144443102Y-113779358D01*
X144195337Y-113828641D01*
X143985293Y-113968989D01*
X143844945Y-114179033D01*
X143795662Y-114426798D01*
X143795662Y-115599435D01*
X141725741Y-117669358D01*
X141347000Y-117669358D01*
X141347000Y-117174478D01*
X141847241Y-116674238D01*
X142243102Y-116674238D01*
X142490867Y-116624955D01*
X142700911Y-116484607D01*
X142841259Y-116274563D01*
X142890542Y-116026798D01*
X142890542Y-114426798D01*
X142841259Y-114179033D01*
X142700911Y-113968989D01*
X142644539Y-113931322D01*
X142645439Y-113926798D01*
X142628102Y-113839637D01*
X142628102Y-113839633D01*
X142576754Y-113581488D01*
X142381151Y-113288749D01*
X142307258Y-113239375D01*
X141347000Y-112279118D01*
X141347000Y-111674238D01*
X142243102Y-111674238D01*
X142490867Y-111624955D01*
X142700911Y-111484607D01*
X142841259Y-111274563D01*
X142890542Y-111026798D01*
X142890542Y-110512548D01*
X143808102Y-110512548D01*
X143808102Y-111153107D01*
X143904775Y-111386496D01*
X144083403Y-111565125D01*
X144316792Y-111661798D01*
X144657352Y-111661798D01*
X144816102Y-111503048D01*
X144816102Y-110353798D01*
X143966852Y-110353798D01*
X143808102Y-110512548D01*
X142890542Y-110512548D01*
X142890542Y-109854159D01*
X143444212Y-109300489D01*
X143808102Y-109300489D01*
X143808102Y-109941048D01*
X143966852Y-110099798D01*
X144816102Y-110099798D01*
X144816102Y-108950548D01*
X144657352Y-108791798D01*
X144316792Y-108791798D01*
X144083403Y-108888471D01*
X143904775Y-109067100D01*
X143808102Y-109300489D01*
X143444212Y-109300489D01*
X144960465Y-107784238D01*
X145443102Y-107784238D01*
X145690867Y-107734955D01*
X145900911Y-107594607D01*
X146039000Y-107387944D01*
X146039000Y-107747330D01*
X146039000Y-107747330D01*
G37*
X146039000Y-107747330D02*
X146272690Y-108311507D01*
X146673183Y-108712000D01*
X146272690Y-109112493D01*
X146078102Y-109582270D01*
X146078102Y-109300489D01*
X145981429Y-109067100D01*
X145802801Y-108888471D01*
X145569412Y-108791798D01*
X145228852Y-108791798D01*
X145070102Y-108950548D01*
X145070102Y-110099798D01*
X145090102Y-110099798D01*
X145090102Y-110353798D01*
X145070102Y-110353798D01*
X145070102Y-111503048D01*
X145228852Y-111661798D01*
X145569412Y-111661798D01*
X145802801Y-111565125D01*
X145981429Y-111386496D01*
X146078102Y-111153107D01*
X146078102Y-110512548D01*
X145919354Y-110353800D01*
X146066533Y-110353800D01*
X146272690Y-110851507D01*
X146673183Y-111252000D01*
X146272690Y-111652493D01*
X146039000Y-112216670D01*
X146039000Y-112827330D01*
X146272690Y-113391507D01*
X146673183Y-113792000D01*
X146272690Y-114192493D01*
X146090542Y-114632237D01*
X146090542Y-114426798D01*
X146041259Y-114179033D01*
X145900911Y-113968989D01*
X145690867Y-113828641D01*
X145443102Y-113779358D01*
X144443102Y-113779358D01*
X144195337Y-113828641D01*
X143985293Y-113968989D01*
X143844945Y-114179033D01*
X143795662Y-114426798D01*
X143795662Y-115599435D01*
X141725741Y-117669358D01*
X141347000Y-117669358D01*
X141347000Y-117174478D01*
X141847241Y-116674238D01*
X142243102Y-116674238D01*
X142490867Y-116624955D01*
X142700911Y-116484607D01*
X142841259Y-116274563D01*
X142890542Y-116026798D01*
X142890542Y-114426798D01*
X142841259Y-114179033D01*
X142700911Y-113968989D01*
X142644539Y-113931322D01*
X142645439Y-113926798D01*
X142628102Y-113839637D01*
X142628102Y-113839633D01*
X142576754Y-113581488D01*
X142381151Y-113288749D01*
X142307258Y-113239375D01*
X141347000Y-112279118D01*
X141347000Y-111674238D01*
X142243102Y-111674238D01*
X142490867Y-111624955D01*
X142700911Y-111484607D01*
X142841259Y-111274563D01*
X142890542Y-111026798D01*
X142890542Y-110512548D01*
X143808102Y-110512548D01*
X143808102Y-111153107D01*
X143904775Y-111386496D01*
X144083403Y-111565125D01*
X144316792Y-111661798D01*
X144657352Y-111661798D01*
X144816102Y-111503048D01*
X144816102Y-110353798D01*
X143966852Y-110353798D01*
X143808102Y-110512548D01*
X142890542Y-110512548D01*
X142890542Y-109854159D01*
X143444212Y-109300489D01*
X143808102Y-109300489D01*
X143808102Y-109941048D01*
X143966852Y-110099798D01*
X144816102Y-110099798D01*
X144816102Y-108950548D01*
X144657352Y-108791798D01*
X144316792Y-108791798D01*
X144083403Y-108888471D01*
X143904775Y-109067100D01*
X143808102Y-109300489D01*
X143444212Y-109300489D01*
X144960465Y-107784238D01*
X145443102Y-107784238D01*
X145690867Y-107734955D01*
X145900911Y-107594607D01*
X146039000Y-107387944D01*
X146039000Y-107747330D01*
G36*
X129580102Y-117729634D02*
X129580102Y-117729637D01*
X129562765Y-117816798D01*
X129563665Y-117821322D01*
X129507293Y-117858989D01*
X129366945Y-118069033D01*
X129317662Y-118316798D01*
X129317662Y-119916798D01*
X129366945Y-120164563D01*
X129507293Y-120374607D01*
X129717337Y-120514955D01*
X129965102Y-120564238D01*
X130660963Y-120564238D01*
X130687000Y-120590275D01*
X130687001Y-122669358D01*
X129965102Y-122669358D01*
X129717337Y-122718641D01*
X129507293Y-122858989D01*
X129366945Y-123069033D01*
X129317662Y-123316798D01*
X129317662Y-124189437D01*
X129309528Y-124197571D01*
X129246072Y-124239971D01*
X129203672Y-124303427D01*
X129203671Y-124303428D01*
X129078097Y-124491363D01*
X129019112Y-124787900D01*
X129034001Y-124862751D01*
X129034001Y-125172385D01*
X128946235Y-125189843D01*
X128736191Y-125330191D01*
X128694000Y-125393334D01*
X128651809Y-125330191D01*
X128441765Y-125189843D01*
X128347120Y-125171017D01*
X128400102Y-125043107D01*
X128400102Y-124402548D01*
X128241352Y-124243798D01*
X127392102Y-124243798D01*
X127392102Y-124263798D01*
X127138102Y-124263798D01*
X127138102Y-124243798D01*
X126288852Y-124243798D01*
X126183330Y-124349320D01*
X125700413Y-123866404D01*
X126015310Y-123551507D01*
X126130102Y-123274375D01*
X126130102Y-123831048D01*
X126288852Y-123989798D01*
X127138102Y-123989798D01*
X127138102Y-122840548D01*
X127392102Y-122840548D01*
X127392102Y-123989798D01*
X128241352Y-123989798D01*
X128400102Y-123831048D01*
X128400102Y-123190489D01*
X128303429Y-122957100D01*
X128124801Y-122778471D01*
X127891412Y-122681798D01*
X127550852Y-122681798D01*
X127392102Y-122840548D01*
X127138102Y-122840548D01*
X126979352Y-122681798D01*
X126638792Y-122681798D01*
X126405403Y-122778471D01*
X126249000Y-122934875D01*
X126249000Y-122376670D01*
X126015310Y-121812493D01*
X125614817Y-121412000D01*
X126015310Y-121011507D01*
X126249000Y-120447330D01*
X126249000Y-120287366D01*
X126307293Y-120374607D01*
X126517337Y-120514955D01*
X126765102Y-120564238D01*
X127765102Y-120564238D01*
X128012867Y-120514955D01*
X128222911Y-120374607D01*
X128363259Y-120164563D01*
X128412542Y-119916798D01*
X128412542Y-118744159D01*
X129618101Y-117538602D01*
X129580102Y-117729634D01*
X129580102Y-117729634D01*
G37*
X129580102Y-117729634D02*
X129580102Y-117729637D01*
X129562765Y-117816798D01*
X129563665Y-117821322D01*
X129507293Y-117858989D01*
X129366945Y-118069033D01*
X129317662Y-118316798D01*
X129317662Y-119916798D01*
X129366945Y-120164563D01*
X129507293Y-120374607D01*
X129717337Y-120514955D01*
X129965102Y-120564238D01*
X130660963Y-120564238D01*
X130687000Y-120590275D01*
X130687001Y-122669358D01*
X129965102Y-122669358D01*
X129717337Y-122718641D01*
X129507293Y-122858989D01*
X129366945Y-123069033D01*
X129317662Y-123316798D01*
X129317662Y-124189437D01*
X129309528Y-124197571D01*
X129246072Y-124239971D01*
X129203672Y-124303427D01*
X129203671Y-124303428D01*
X129078097Y-124491363D01*
X129019112Y-124787900D01*
X129034001Y-124862751D01*
X129034001Y-125172385D01*
X128946235Y-125189843D01*
X128736191Y-125330191D01*
X128694000Y-125393334D01*
X128651809Y-125330191D01*
X128441765Y-125189843D01*
X128347120Y-125171017D01*
X128400102Y-125043107D01*
X128400102Y-124402548D01*
X128241352Y-124243798D01*
X127392102Y-124243798D01*
X127392102Y-124263798D01*
X127138102Y-124263798D01*
X127138102Y-124243798D01*
X126288852Y-124243798D01*
X126183330Y-124349320D01*
X125700413Y-123866404D01*
X126015310Y-123551507D01*
X126130102Y-123274375D01*
X126130102Y-123831048D01*
X126288852Y-123989798D01*
X127138102Y-123989798D01*
X127138102Y-122840548D01*
X127392102Y-122840548D01*
X127392102Y-123989798D01*
X128241352Y-123989798D01*
X128400102Y-123831048D01*
X128400102Y-123190489D01*
X128303429Y-122957100D01*
X128124801Y-122778471D01*
X127891412Y-122681798D01*
X127550852Y-122681798D01*
X127392102Y-122840548D01*
X127138102Y-122840548D01*
X126979352Y-122681798D01*
X126638792Y-122681798D01*
X126405403Y-122778471D01*
X126249000Y-122934875D01*
X126249000Y-122376670D01*
X126015310Y-121812493D01*
X125614817Y-121412000D01*
X126015310Y-121011507D01*
X126249000Y-120447330D01*
X126249000Y-120287366D01*
X126307293Y-120374607D01*
X126517337Y-120514955D01*
X126765102Y-120564238D01*
X127765102Y-120564238D01*
X128012867Y-120514955D01*
X128222911Y-120374607D01*
X128363259Y-120164563D01*
X128412542Y-119916798D01*
X128412542Y-118744159D01*
X129618101Y-117538602D01*
X129580102Y-117729634D01*
G36*
X129631450Y-108581489D02*
X129562765Y-108926798D01*
X129563665Y-108931322D01*
X129507293Y-108968989D01*
X129366945Y-109179033D01*
X129317662Y-109426798D01*
X129317662Y-111026798D01*
X129366945Y-111274563D01*
X129507293Y-111484607D01*
X129563665Y-111522274D01*
X129562765Y-111526798D01*
X129631450Y-111872107D01*
X129777678Y-112090952D01*
X129777680Y-112090954D01*
X129827054Y-112164847D01*
X129900947Y-112214221D01*
X130687000Y-113000275D01*
X130687000Y-113779358D01*
X129965102Y-113779358D01*
X129717337Y-113828641D01*
X129507293Y-113968989D01*
X129366945Y-114179033D01*
X129317662Y-114426798D01*
X129317662Y-115689435D01*
X127337741Y-117669358D01*
X126765102Y-117669358D01*
X126517337Y-117718641D01*
X126307293Y-117858989D01*
X126206608Y-118009674D01*
X126249000Y-117907330D01*
X126249000Y-117296670D01*
X126015310Y-116732493D01*
X125614817Y-116332000D01*
X126015310Y-115931507D01*
X126130102Y-115654375D01*
X126130102Y-116153107D01*
X126226775Y-116386496D01*
X126405403Y-116565125D01*
X126638792Y-116661798D01*
X126979352Y-116661798D01*
X127138102Y-116503048D01*
X127138102Y-115353798D01*
X127392102Y-115353798D01*
X127392102Y-116503048D01*
X127550852Y-116661798D01*
X127891412Y-116661798D01*
X128124801Y-116565125D01*
X128303429Y-116386496D01*
X128400102Y-116153107D01*
X128400102Y-115512548D01*
X128241352Y-115353798D01*
X127392102Y-115353798D01*
X127138102Y-115353798D01*
X127118102Y-115353798D01*
X127118102Y-115099798D01*
X127138102Y-115099798D01*
X127138102Y-113950548D01*
X127392102Y-113950548D01*
X127392102Y-115099798D01*
X128241352Y-115099798D01*
X128400102Y-114941048D01*
X128400102Y-114300489D01*
X128303429Y-114067100D01*
X128124801Y-113888471D01*
X127891412Y-113791798D01*
X127550852Y-113791798D01*
X127392102Y-113950548D01*
X127138102Y-113950548D01*
X126979352Y-113791798D01*
X126638792Y-113791798D01*
X126405403Y-113888471D01*
X126226775Y-114067100D01*
X126130102Y-114300489D01*
X126130102Y-114469625D01*
X126015310Y-114192493D01*
X125614817Y-113792000D01*
X126015310Y-113391507D01*
X126249000Y-112827330D01*
X126249000Y-112216670D01*
X126015310Y-111652493D01*
X125614817Y-111252000D01*
X126015310Y-110851507D01*
X126117662Y-110604408D01*
X126117662Y-111026798D01*
X126166945Y-111274563D01*
X126307293Y-111484607D01*
X126517337Y-111624955D01*
X126765102Y-111674238D01*
X127765102Y-111674238D01*
X128012867Y-111624955D01*
X128222911Y-111484607D01*
X128363259Y-111274563D01*
X128412542Y-111026798D01*
X128412542Y-109764159D01*
X129704420Y-108472283D01*
X129631450Y-108581489D01*
X129631450Y-108581489D01*
G37*
X129631450Y-108581489D02*
X129562765Y-108926798D01*
X129563665Y-108931322D01*
X129507293Y-108968989D01*
X129366945Y-109179033D01*
X129317662Y-109426798D01*
X129317662Y-111026798D01*
X129366945Y-111274563D01*
X129507293Y-111484607D01*
X129563665Y-111522274D01*
X129562765Y-111526798D01*
X129631450Y-111872107D01*
X129777678Y-112090952D01*
X129777680Y-112090954D01*
X129827054Y-112164847D01*
X129900947Y-112214221D01*
X130687000Y-113000275D01*
X130687000Y-113779358D01*
X129965102Y-113779358D01*
X129717337Y-113828641D01*
X129507293Y-113968989D01*
X129366945Y-114179033D01*
X129317662Y-114426798D01*
X129317662Y-115689435D01*
X127337741Y-117669358D01*
X126765102Y-117669358D01*
X126517337Y-117718641D01*
X126307293Y-117858989D01*
X126206608Y-118009674D01*
X126249000Y-117907330D01*
X126249000Y-117296670D01*
X126015310Y-116732493D01*
X125614817Y-116332000D01*
X126015310Y-115931507D01*
X126130102Y-115654375D01*
X126130102Y-116153107D01*
X126226775Y-116386496D01*
X126405403Y-116565125D01*
X126638792Y-116661798D01*
X126979352Y-116661798D01*
X127138102Y-116503048D01*
X127138102Y-115353798D01*
X127392102Y-115353798D01*
X127392102Y-116503048D01*
X127550852Y-116661798D01*
X127891412Y-116661798D01*
X128124801Y-116565125D01*
X128303429Y-116386496D01*
X128400102Y-116153107D01*
X128400102Y-115512548D01*
X128241352Y-115353798D01*
X127392102Y-115353798D01*
X127138102Y-115353798D01*
X127118102Y-115353798D01*
X127118102Y-115099798D01*
X127138102Y-115099798D01*
X127138102Y-113950548D01*
X127392102Y-113950548D01*
X127392102Y-115099798D01*
X128241352Y-115099798D01*
X128400102Y-114941048D01*
X128400102Y-114300489D01*
X128303429Y-114067100D01*
X128124801Y-113888471D01*
X127891412Y-113791798D01*
X127550852Y-113791798D01*
X127392102Y-113950548D01*
X127138102Y-113950548D01*
X126979352Y-113791798D01*
X126638792Y-113791798D01*
X126405403Y-113888471D01*
X126226775Y-114067100D01*
X126130102Y-114300489D01*
X126130102Y-114469625D01*
X126015310Y-114192493D01*
X125614817Y-113792000D01*
X126015310Y-113391507D01*
X126249000Y-112827330D01*
X126249000Y-112216670D01*
X126015310Y-111652493D01*
X125614817Y-111252000D01*
X126015310Y-110851507D01*
X126117662Y-110604408D01*
X126117662Y-111026798D01*
X126166945Y-111274563D01*
X126307293Y-111484607D01*
X126517337Y-111624955D01*
X126765102Y-111674238D01*
X127765102Y-111674238D01*
X128012867Y-111624955D01*
X128222911Y-111484607D01*
X128363259Y-111274563D01*
X128412542Y-111026798D01*
X128412542Y-109764159D01*
X129704420Y-108472283D01*
X129631450Y-108581489D01*
G04 #@! TD*
M02*
